<svg width="243" height="395" viewBox="0 0 243 395" fill="none" xmlns="http://www.w3.org/2000/svg">
<g opacity="0.5">
<rect width="243" height="243" rx="121.5" fill="#BA94D6"/>
<path d="M86.0388 114.815C91.583 114.815 96.0775 110.379 96.0775 104.907C96.0775 99.4359 91.583 95.0002 86.0388 95.0002C80.4945 95.0002 76 99.4359 76 104.907C76 110.379 80.4945 114.815 86.0388 114.815Z" fill="white"/>
<path d="M158.339 114.814C163.883 114.814 168.377 110.379 168.377 104.907C168.377 99.4356 163.883 95 158.339 95C152.794 95 148.3 99.4356 148.3 104.907C148.3 110.379 152.794 114.814 158.339 114.814Z" fill="white"/>
<path d="M136.951 135.693C136.951 137.424 136.275 138.613 135.091 139.427C134.077 140.115 133.464 141.241 133.358 142.472C133.105 145.204 132.344 149.438 129.977 149.438C127.737 149.438 126.955 147.728 126.659 145.162C126.405 142.889 124.524 141.158 122.221 141.158C122.221 141.158 122.2 141.158 122.178 141.158C114.021 141.158 107.427 141.158 107.427 135.714C107.427 130.27 114.021 130.27 122.178 130.27C130.336 130.27 136.951 130.27 136.951 135.714V135.693Z" fill="white"/>
</g>
<path opacity="0.5" d="M98.7903 316.008H92.3983V284.66H83.6263C75.6703 295.064 68.0543 305.672 60.0983 316.076V323.692H84.1703V336H92.3983V323.692H98.7903V316.008ZM84.1703 300.3V316.144H69.3463L84.3063 296.016C84.2383 297.852 84.1703 299.688 84.1703 300.3ZM140.346 310.772C140.346 292.684 132.254 284.524 121.374 284.524C110.766 284.524 102.606 292.684 102.606 310.772C102.606 328.724 110.766 336.952 121.374 336.952C132.254 336.952 140.346 328.724 140.346 310.772ZM130.826 310.772C130.826 325.188 126.338 329.064 121.374 329.064C116.682 329.064 112.126 325.188 112.126 310.772C112.126 296.288 116.682 292.344 121.374 292.344C126.338 292.344 130.826 296.288 130.826 310.772ZM183.806 316.008H177.414V284.66H168.642C160.686 295.064 153.07 305.672 145.114 316.076V323.692H169.186V336H177.414V323.692H183.806V316.008ZM169.186 300.3V316.144H154.362L169.322 296.016C169.254 297.852 169.186 299.688 169.186 300.3Z" fill="#BA94D6"/>
<path opacity="0.5" d="M36.4109 381.54L37.5909 379.5C34.6709 378.82 33.3909 376.92 33.3309 375.14H36.9709V373.06H33.3309V371.24H30.6909V373.06H27.0909V375.14H30.6909C30.6309 377.12 29.3309 379 26.4309 379.8L27.6509 381.86C29.8109 381.28 31.2309 380.02 32.0509 378.42C32.9109 379.86 34.3109 380.98 36.4109 381.54ZM43.5109 377.6V375.42H41.0709V371.3H38.4309V381.78H41.0709V377.6H43.5109ZM36.6709 384.66H41.3109V382.58H28.9709V384.66H33.5909C33.1109 386.04 31.4309 387.28 28.1709 387.66L29.1109 389.66C32.0909 389.28 34.0909 388.18 35.1509 386.58C36.1909 388.18 38.1709 389.3 41.1509 389.68L42.0909 387.68C38.9509 387.3 37.1509 385.98 36.6709 384.66ZM52.7894 377.84C57.1694 377.84 59.4694 376.78 59.4694 374.7C59.4694 372.68 57.1694 371.56 52.7894 371.56C48.4494 371.56 46.1294 372.68 46.1294 374.7C46.1294 376.78 48.4494 377.84 52.7894 377.84ZM52.7894 373.5C55.5294 373.5 56.7294 373.88 56.7294 374.7C56.7294 375.56 55.5294 375.92 52.7894 375.92C50.1294 375.92 48.8694 375.56 48.8694 374.7C48.8694 373.88 50.1294 373.5 52.7894 373.5ZM61.1094 380.78V378.72H44.4694V380.78H61.1094ZM59.5694 387.6H49.0094V386.56H59.0894V381.82H46.3694V383.76H56.4894V384.74H46.3894V389.58H59.5694V387.6ZM81.4591 379.96L82.4591 377.84C78.2991 377.26 76.1591 374.88 76.1591 372.72V371.84H73.3391V372.72C73.3391 374.88 71.2591 377.26 67.0391 377.84L68.0391 379.96C71.2591 379.48 73.5591 378 74.7591 376C75.9591 378 78.2391 379.48 81.4591 379.96ZM75.9991 383.46H83.0591V381.32H66.4191V383.46H73.3591V389.74H75.9991V383.46ZM98.1488 377.38H101.089V381.04H103.729V371.3H101.089V375.24H98.1288C97.6488 373.26 95.7488 371.98 93.4088 371.98C90.6488 371.98 88.5688 373.8 88.5688 376.32C88.5688 378.88 90.6488 380.68 93.4088 380.68C95.7288 380.68 97.6688 379.36 98.1488 377.38ZM91.0888 376.32C91.0888 374.96 92.0488 374.16 93.4088 374.16C94.7688 374.16 95.7488 374.96 95.7488 376.32C95.7488 377.7 94.7688 378.5 93.4088 378.5C92.0488 378.5 91.0888 377.7 91.0888 376.32ZM102.529 383.32V381.94H99.9288V383.32C99.9288 385 99.0888 386.66 97.0688 387.62V382.1H94.6488V383.9H92.7888V382.1H90.3488V389.5H97.0688V388.12L98.1088 389.7C99.6288 389.12 100.569 388.1 101.189 386.82C101.809 388.1 102.809 389.14 104.349 389.7L105.649 387.74C103.389 386.94 102.529 385.24 102.529 383.32ZM92.7888 385.8H94.6488V387.54H92.7888V385.8ZM108.287 378.38H121.067V376.28H110.927V371.96H108.287V378.38ZM122.907 382.38V380.26H106.227V382.38H122.907ZM121.167 387.22H110.767V383.84H108.107V389.34H121.167V387.22ZM144.137 389.74V371.3H141.637V389.74H144.137ZM140.437 371.68H137.977V378.02H136.217V380.32H137.977V388.88H140.437V371.68ZM135.497 383.12V375.48H136.677V373.38H128.297V375.48H129.417V383.4H127.977L128.257 385.54C130.557 385.54 134.257 385.5 137.117 384.86L136.937 382.96C136.477 383.02 135.997 383.06 135.497 383.12ZM131.777 383.34V375.48H133.137V383.28C132.697 383.32 132.237 383.34 131.777 383.34ZM161.315 389.76V371.28H158.675V389.76H161.315ZM151.415 372.58C148.635 372.58 146.575 375.1 146.575 379.14C146.575 383.2 148.635 385.74 151.415 385.74C154.195 385.74 156.255 383.2 156.255 379.14C156.255 375.1 154.195 372.58 151.415 372.58ZM151.415 374.96C152.775 374.96 153.715 376.4 153.715 379.14C153.715 381.88 152.775 383.34 151.415 383.34C150.055 383.34 149.115 381.88 149.115 379.14C149.115 376.4 150.055 374.96 151.415 374.96ZM179.214 389.72V371.3H176.574V389.72H179.214ZM171.074 376.26V375.24H174.874V373.06H164.554V375.24H168.394V376.26C168.394 379.4 166.914 382.78 163.814 384.16L165.314 386.26C167.474 385.28 168.954 383.28 169.774 380.86C170.594 383.12 172.034 384.86 174.194 385.8L175.634 383.72C172.554 382.44 171.074 379.26 171.074 376.26ZM197.652 389.7V371.28H195.152V389.7H197.652ZM193.872 371.6H191.412V378.08H189.952C189.652 374.48 188.172 372.6 185.992 372.6C183.552 372.6 182.012 375.12 182.012 379.28C182.012 383.46 183.552 385.98 185.992 385.98C188.252 385.98 189.732 383.84 189.972 380.22H191.412V388.9H193.872V371.6ZM185.992 383.5C184.972 383.5 184.392 382.18 184.392 379.28C184.392 376.46 184.972 375.08 185.992 375.08C187.012 375.08 187.592 376.46 187.592 379.28C187.592 382.18 187.012 383.5 185.992 383.5ZM216.431 387.58V385.44H212.731V380.94C214.111 380.08 214.951 378.76 214.951 377.16C214.951 374.14 212.051 372.2 208.071 372.2C204.131 372.2 201.211 374.14 201.211 377.16C201.191 378.76 201.991 380.08 203.431 380.94V385.44H199.751V387.58H216.431ZM208.071 374.28C210.631 374.28 212.351 375.32 212.351 377.16C212.351 379 210.631 380.04 208.071 380.04C205.511 380.04 203.811 379 203.811 377.16C203.811 375.32 205.511 374.28 208.071 374.28ZM210.111 385.44H206.051V381.92C206.691 382.04 207.371 382.1 208.071 382.1C208.791 382.1 209.471 382.04 210.111 381.92V385.44Z" fill="#BA94D6"/>
</svg>
