<svg width="16" height="16" viewBox="0 0 16 16" fill="none" xmlns="http://www.w3.org/2000/svg">
<path d="M11.1639 2L5.834 2C5.56272 2 5.29239 2.03228 5.02874 2.09617V2.09617C3.49476 2.46786 2.41447 3.84116 2.41447 5.41953L2.41447 9.01999C2.41447 9.67901 2.94613 10.2146 3.60512 10.2195L7.75137 10.25L6.82897 12.43C6.51378 13.1749 7.06059 14 7.86944 14V14C8.20751 14 8.52781 13.8486 8.74241 13.5874L11.1639 10.6399M11.1639 2L11.1639 10.6399M11.1639 2L12.9189 1.99998C13.287 1.99998 13.5855 2.29845 13.5855 2.66664L13.5855 9.97319C13.5855 10.3414 13.287 10.6399 12.9189 10.6399L11.1639 10.6399" stroke="#AAAAAA" stroke-linecap="round" stroke-linejoin="round"/>
</svg>
