<svg width="54" height="52" viewBox="0 0 54 52" fill="none" xmlns="http://www.w3.org/2000/svg">
<g filter="url(#filter0_d_1305_8079)">
<path d="M20.4971 47.3609V48.7798C20.4971 49.2981 20.9173 49.7183 21.4356 49.7183H32.5722C33.0905 49.7183 33.5107 49.2981 33.5107 48.7798V47.3609C33.5107 46.8426 33.0905 46.4224 32.5722 46.4224H21.4356C20.9173 46.4224 20.4971 46.8426 20.4971 47.3609Z" fill="#FF9C07"/>
<path d="M13.173 31.1179C17.887 31.1179 21.7084 27.2966 21.7084 22.5826C21.7084 17.8687 17.887 14.0473 13.173 14.0473C8.4591 14.0473 4.6377 17.8687 4.6377 22.5826C4.6377 27.2966 8.4591 31.1179 13.173 31.1179Z" fill="white"/>
<path d="M40.8185 31.1179C45.5325 31.1179 49.3539 27.2966 49.3539 22.5826C49.3539 17.8687 45.5325 14.0473 40.8185 14.0473C36.1046 14.0473 32.2832 17.8687 32.2832 22.5826C32.2832 27.2966 36.1046 31.1179 40.8185 31.1179Z" fill="white"/>
<path d="M26.9999 30.1794C32.8484 30.1794 37.5896 25.4382 37.5896 19.5897C37.5896 13.7412 32.8484 9 26.9999 9C21.1513 9 16.4102 13.7412 16.4102 19.5897C16.4102 25.4382 21.1513 30.1794 26.9999 30.1794Z" fill="white"/>
<path d="M52 23.0704C52 36.8821 46.3911 48.063 27.0074 48.063C7.62371 48.063 2 36.8747 2 23.0704H52Z" fill="#FFC107"/>
<path d="M20.5191 44.671C20.3861 44.671 20.2531 44.6488 20.12 44.6045C14.1121 42.7718 9.16081 38.1827 6.87734 32.3299C6.58174 31.5835 6.95125 30.7411 7.69763 30.4529C8.44401 30.1646 9.28646 30.5267 9.57467 31.2731C11.5404 36.3056 15.8043 40.2518 20.9625 41.8259C21.731 42.0624 22.1597 42.8679 21.9306 43.6364C21.7384 44.2719 21.1472 44.6784 20.5191 44.6636V44.671Z" fill="white"/>
</g>
<defs>
<filter id="filter0_d_1305_8079" x="0" y="7" width="54" height="44.7183" filterUnits="userSpaceOnUse" color-interpolation-filters="sRGB">
<feFlood flood-opacity="0" result="BackgroundImageFix"/>
<feColorMatrix in="SourceAlpha" type="matrix" values="0 0 0 0 0 0 0 0 0 0 0 0 0 0 0 0 0 0 127 0" result="hardAlpha"/>
<feOffset/>
<feGaussianBlur stdDeviation="1"/>
<feComposite in2="hardAlpha" operator="out"/>
<feColorMatrix type="matrix" values="0 0 0 0 0.133333 0 0 0 0 0.133333 0 0 0 0 0.133333 0 0 0 0.15 0"/>
<feBlend mode="normal" in2="BackgroundImageFix" result="effect1_dropShadow_1305_8079"/>
<feBlend mode="normal" in="SourceGraphic" in2="effect1_dropShadow_1305_8079" result="shape"/>
</filter>
</defs>
</svg>
