<svg width="16" height="16" viewBox="0 0 16 16" fill="none" xmlns="http://www.w3.org/2000/svg">
<path d="M10.2419 10.0743C10.5039 10.1616 10.787 10.0201 10.8743 9.75809C10.9617 9.49612 10.8201 9.21296 10.5581 9.12563L10.2419 10.0743ZM8 8.79997H7.5C7.5 9.01519 7.63772 9.20626 7.84189 9.27432L8 8.79997ZM8.5 5.45481C8.5 5.17867 8.27615 4.95481 8 4.95481C7.72386 4.95481 7.5 5.17867 7.5 5.45481H8.5ZM10.5581 9.12563L8.15812 8.32563L7.84189 9.27432L10.2419 10.0743L10.5581 9.12563ZM8.5 8.79997V5.45481H7.5V8.79997H8.5ZM13.9 7.99997C13.9 11.2585 11.2585 13.9 8 13.9V14.9C11.8108 14.9 14.9 11.8107 14.9 7.99997H13.9ZM8 13.9C4.74153 13.9 2.10001 11.2585 2.10001 7.99997H1.10001C1.10001 11.8107 4.18924 14.9 8 14.9V13.9ZM2.10001 7.99997C2.10001 4.74149 4.74153 2.09998 8 2.09998V1.09998C4.18924 1.09998 1.10001 4.18921 1.10001 7.99997H2.10001ZM8 2.09998C11.2585 2.09998 13.9 4.74149 13.9 7.99997H14.9C14.9 4.18921 11.8108 1.09998 8 1.09998V2.09998Z" fill="#AAAAAA"/>
</svg>
