<svg width="24" height="24" viewBox="0 0 24 24" fill="none" xmlns="http://www.w3.org/2000/svg">
<path d="M4.10062 17.7998H19.9029C20.3419 17.7998 20.5909 17.159 20.3324 16.7918C19.7337 15.9416 19.1522 14.6883 19.1522 13.177L19.1779 11.1097C19.1779 7.00915 15.9648 3.68498 12.0012 3.68498C8.0952 3.68498 4.92874 6.9609 4.92874 11.0019L4.903 13.177C4.903 14.678 4.30069 15.9245 3.67666 16.7744C3.40773 17.1406 3.65604 17.7998 4.10062 17.7998Z" fill="#ECC658"/>
<path d="M3.67666 16.7744L2.87061 16.1825L2.87061 16.1825L3.67666 16.7744ZM4.903 13.177L3.903 13.1651V13.177H4.903ZM4.92874 11.0019L5.92874 11.0138V11.0019H4.92874ZM20.3324 16.7918L21.15 16.2161L21.15 16.2161L20.3324 16.7918ZM19.1522 13.177L18.1522 13.1645V13.177H19.1522ZM19.1779 11.1097L20.1779 11.1222V11.1097H19.1779ZM9.79131 19.8968C9.35033 19.5643 8.7233 19.6522 8.3908 20.0932C8.0583 20.5341 8.14624 21.1612 8.58722 21.4937L9.79131 19.8968ZM15.4152 21.4937C15.8562 21.1612 15.9442 20.5341 15.6117 20.0932C15.2792 19.6522 14.6521 19.5643 14.2111 19.8968L15.4152 21.4937ZM2.07181 5.63242C1.8663 6.14504 2.11527 6.7272 2.6279 6.93271C3.14053 7.13821 3.72269 6.88924 3.92819 6.37661L2.07181 5.63242ZM6.64253 3.28041C7.12876 3.01849 7.31059 2.41199 7.04867 1.92577C6.78674 1.43954 6.18025 1.25771 5.69402 1.51964L6.64253 3.28041ZM18.293 1.53446C17.8096 1.26739 17.2012 1.44276 16.9341 1.92618C16.6671 2.40959 16.8424 3.01799 17.3258 3.28506L18.293 1.53446ZM20.0679 6.35687C20.2679 6.87166 20.8474 7.12684 21.3622 6.92683C21.877 6.72681 22.1321 6.14734 21.9321 5.63255L20.0679 6.35687ZM4.48271 17.3662C5.19348 16.3982 5.903 14.9488 5.903 13.177H3.903C3.903 14.4072 3.4079 15.4508 2.87061 16.1825L4.48271 17.3662ZM5.90293 13.1888L5.92867 11.0138L3.92881 10.9901L3.90307 13.1651L5.90293 13.1888ZM21.15 16.2161C20.6353 15.4852 20.1522 14.4292 20.1522 13.177H18.1522C18.1522 14.9474 18.8321 16.398 19.5147 17.3675L21.15 16.2161ZM20.1521 13.1894L20.1778 11.1222L18.178 11.0973L18.1522 13.1645L20.1521 13.1894ZM20.1779 11.1097C20.1779 6.48917 16.5488 2.68498 12.0012 2.68498V4.68498C15.3807 4.68498 18.1779 7.52914 18.1779 11.1097H20.1779ZM19.9029 18.7998C20.6648 18.7998 21.1248 18.2495 21.304 17.814C21.4845 17.3753 21.523 16.7458 21.15 16.2161L19.5147 17.3675C19.4555 17.2835 19.4401 17.2049 19.4376 17.1592C19.4351 17.1152 19.4428 17.0813 19.4544 17.053C19.4655 17.0261 19.4935 16.9726 19.5612 16.9177C19.6359 16.857 19.7557 16.7998 19.9029 16.7998V18.7998ZM5.92874 11.0019C5.92874 7.48088 8.67925 4.68498 12.0012 4.68498V2.68498C7.51116 2.68498 3.92874 6.44092 3.92874 11.0019H5.92874ZM4.10062 16.7998C4.25103 16.7998 4.37233 16.8593 4.44655 16.9207C4.51344 16.9761 4.53989 17.0289 4.54985 17.0538C4.56038 17.0802 4.5676 17.1126 4.56469 17.156C4.56168 17.2009 4.54525 17.281 4.48271 17.3662L2.87061 16.1825C2.48078 16.7134 2.51603 17.3534 2.69229 17.7951C2.86688 18.2326 3.32603 18.7998 4.10062 18.7998V16.7998ZM19.9029 16.7998H4.10062V18.7998H19.9029V16.7998ZM12.0012 20.6C11.13 20.6 10.3577 20.3238 9.79131 19.8968L8.58722 21.4937C9.51332 22.192 10.7119 22.6 12.0012 22.6V20.6ZM14.2111 19.8968C13.6448 20.3238 12.8724 20.6 12.0012 20.6V22.6C13.2906 22.6 14.4891 22.192 15.4152 21.4937L14.2111 19.8968ZM3.92819 6.37661C4.46301 5.04251 5.41497 3.94169 6.64253 3.28041L5.69402 1.51964C4.02696 2.41766 2.76905 3.89315 2.07181 5.63242L3.92819 6.37661ZM17.3258 3.28506C18.5894 3.98313 19.5652 5.06301 20.0679 6.35687L21.9321 5.63255C21.2476 3.87065 19.936 2.44216 18.293 1.53446L17.3258 3.28506Z" fill="#ECC658"/>
</svg>
