<svg width="375" height="160" viewBox="0 0 375 160" fill="none" xmlns="http://www.w3.org/2000/svg">
<rect width="375" height="160" fill="#84BDF9"/>
<path d="M156.126 87.1184C160.854 87.1184 164.686 83.2863 164.686 78.5592C164.686 73.8321 160.854 70 156.126 70C151.398 70 147.566 73.8321 147.566 78.5592C147.566 83.2863 151.398 87.1184 156.126 87.1184Z" fill="white"/>
<path d="M217.899 87.1184C222.627 87.1184 226.46 83.2863 226.46 78.5592C226.46 73.8321 222.627 70 217.899 70C213.172 70 209.339 73.8321 209.339 78.5592C209.339 83.2863 213.172 87.1184 217.899 87.1184Z" fill="white"/>
<path d="M186.885 89.0347C180.721 89.0347 176.408 85.841 176.408 81.2421C176.408 79.4855 177.846 78.0483 179.603 78.0483C181.359 78.0483 182.797 79.4855 182.797 81.2421C182.797 81.7211 184.394 82.6473 186.885 82.6473C189.377 82.6473 190.974 81.7211 190.974 81.2421C190.974 79.4855 192.411 78.0483 194.168 78.0483C195.924 78.0483 197.362 79.4855 197.362 81.2421C197.362 85.8091 193.05 89.0347 186.885 89.0347Z" fill="white"/>
</svg>
