<svg width="48" height="48" viewBox="0 0 48 48" fill="none" xmlns="http://www.w3.org/2000/svg">
<path d="M24 48C37.2548 48 48 37.2548 48 24C48 10.7452 37.2548 0 24 0C10.7452 0 0 10.7452 0 24C0 37.2548 10.7452 48 24 48Z" fill="#FFB300"/>
<path d="M16.4121 24.785C17.5754 24.785 18.5185 23.8419 18.5185 22.6786C18.5185 21.5152 17.5754 20.5721 16.4121 20.5721C15.2487 20.5721 14.3057 21.5152 14.3057 22.6786C14.3057 23.8419 15.2487 24.785 16.4121 24.785Z" fill="white"/>
<path d="M31.583 24.785C32.7463 24.785 33.6894 23.8419 33.6894 22.6786C33.6894 21.5152 32.7463 20.5721 31.583 20.5721C30.4196 20.5721 29.4766 21.5152 29.4766 22.6786C29.4766 23.8419 30.4196 24.785 31.583 24.785Z" fill="white"/>
<path fill-rule="evenodd" clip-rule="evenodd" d="M26.8549 25.6002C27.1051 25.6878 27.237 25.9616 27.1494 26.2118L26.6963 26.0533C27.1494 26.2118 27.1493 26.212 27.1493 26.2122L27.1491 26.2126L27.1488 26.2134L27.1482 26.2153L27.1464 26.2201L27.1414 26.2335C27.1374 26.2441 27.132 26.258 27.1251 26.2747C27.1113 26.3079 27.0916 26.3529 27.0653 26.4056C27.0134 26.51 26.9331 26.6511 26.8192 26.7948C26.5944 27.0785 26.1964 27.4202 25.601 27.4202C25.1835 27.4202 24.8033 27.2483 24.5187 27.0739C24.3326 26.9599 24.168 26.8327 24.0356 26.7192C23.9032 26.8327 23.7385 26.9599 23.5525 27.0739C23.2679 27.2483 22.8877 27.4202 22.4702 27.4202C21.884 27.4202 21.471 27.0856 21.2318 26.8138C21.109 26.6742 21.0185 26.5367 20.9586 26.4347C20.9284 26.3832 20.9052 26.3394 20.8889 26.307C20.8808 26.2908 20.8743 26.2773 20.8695 26.2671L20.8636 26.2543L20.8615 26.2498L20.8607 26.248L20.8604 26.2472L20.8602 26.2469C20.8602 26.2467 20.8601 26.2466 21.2995 26.0533L20.8601 26.2466C20.7533 26.0039 20.8635 25.7207 21.1061 25.6139C21.348 25.5075 21.6302 25.6166 21.7378 25.8576C21.7377 25.8574 21.7376 25.8573 21.7376 25.8573M21.7378 25.8576C21.7379 25.8579 21.7382 25.8585 21.7386 25.8593C21.7399 25.8621 21.7425 25.8677 21.7466 25.8757C21.7547 25.8919 21.7681 25.9173 21.7866 25.9489C21.8243 26.0132 21.8802 26.0974 21.9525 26.1796C22.1035 26.3512 22.2759 26.4602 22.4702 26.4602C22.6336 26.4602 22.8343 26.3881 23.0509 26.2554C23.2608 26.1268 23.4434 25.9672 23.5602 25.8544L23.5641 25.8506L23.5641 25.8506C23.8289 25.6005 24.2423 25.6005 24.5071 25.8506L24.511 25.8544L24.511 25.8544C24.6278 25.9672 24.8104 26.1268 25.0203 26.2554C25.2369 26.3881 25.4376 26.4602 25.601 26.4602C25.7905 26.4602 25.9402 26.3584 26.0668 26.1986C26.1287 26.1205 26.175 26.04 26.2058 25.978C26.2209 25.9476 26.2316 25.9233 26.2379 25.9081C26.241 25.9005 26.243 25.8953 26.2439 25.8929L26.2437 25.8934L26.2435 25.894L26.2434 25.8943C26.2437 25.8935 26.244 25.8927 26.2443 25.8918C26.333 25.6435 26.6057 25.513 26.8549 25.6002M26.2443 25.8918C26.2442 25.8921 26.2441 25.8924 26.2439 25.8929L26.2441 25.8925L26.2444 25.8916C26.2444 25.8917 26.2443 25.8917 26.2443 25.8918Z" fill="white"/>
</svg>
