<svg width="48" height="48" viewBox="0 0 48 48" fill="none" xmlns="http://www.w3.org/2000/svg">
<rect width="48" height="48" rx="24" fill="#D9D9D9"/>
<path d="M22.1468 17.09H23.5868V16.41H22.1468V12.77H21.3268V21.74H22.1468V17.09ZM19.8668 13.7H15.8168V14.37H19.0468C19.0168 14.92 18.9268 15.44 18.7768 15.94L15.3668 16.17L15.5068 16.89L18.5268 16.6C17.9668 17.81 16.9968 18.81 15.3268 19.64L15.7768 20.27C18.9768 18.67 19.8668 16.3 19.8668 13.7ZM32.224 21.73V12.76H31.444V21.73H32.224ZM30.414 12.99H29.644V16.17H28.344V16.84H29.644V21.28H30.414V12.99ZM25.734 18.91V16.92H27.864V16.27H25.734V14.51H28.284V13.84H24.944V19.58H25.524C26.934 19.58 27.784 19.56 28.794 19.35L28.724 18.68C27.794 18.87 26.984 18.91 25.734 18.91ZM16.1068 26.34H21.5768V26.56C21.5768 27.63 21.5868 28.91 21.2368 30.62L22.0568 30.71C22.4068 28.9 22.3968 27.68 22.3968 26.56V25.67H16.1068V26.34ZM23.3668 32.48V31.81H19.2268V28.6H18.4068V31.81H15.2568V32.48H23.3668ZM31.974 33.75V24.76H31.154V33.75H31.974ZM25.954 30.9V28.81H29.264V25.6H25.104V26.27H28.434V28.14H25.134V31.58H25.874C27.424 31.58 28.764 31.52 30.394 31.25L30.314 30.58C28.754 30.82 27.424 30.9 25.954 30.9Z" fill="#666666"/>
</svg>
