<svg width="48" height="48" viewBox="0 0 48 48" fill="none" xmlns="http://www.w3.org/2000/svg">
<rect width="48" height="48" rx="24" fill="#D9D9D9"/>
<path d="M11.3132 13.68H12.6732V15.39H11.3432V16.02H17.8632V15.39H16.5432V13.68H17.8932V13.05H11.3132V13.68ZM13.4932 13.68H15.7232V15.39H13.4932V13.68ZM18.6732 17.42V16.77H10.5532V17.42H18.6732ZM17.9032 21.02H12.3632V20.18H17.6332V18.21H11.5332V18.82H16.8232V19.59H11.5632V21.64H17.9032V21.02ZM24.7304 18.1H25.5104V15.78H26.7104V18.88H27.5004V12.78H26.7104V15.12H25.5104V12.94H24.7304V18.1ZM24.3004 17.69L24.2104 17.04C23.1804 17.25 22.2904 17.31 21.1304 17.31V15.98H23.6904V13.48H20.3204V14.14H22.9004V15.36H20.3404V17.97H20.9304C22.2204 17.97 23.1604 17.93 24.3004 17.69ZM24.9204 18.7V18.47H24.0904V18.7C24.0904 19.85 22.6204 20.83 21.0604 21.07L21.3904 21.71C22.7204 21.47 23.9404 20.8 24.5104 19.8C25.0504 20.8 26.3204 21.47 27.6304 21.71L27.9604 21.07C26.3904 20.83 24.9204 19.85 24.9204 18.7ZM37.4076 17.95V17.29H33.7576V16.26H36.5976V15.6H35.2776V13.72H36.6376V13.06H30.0576V13.72H31.4076V15.6H30.0876V16.26H32.9376V17.29H29.2976V17.95H37.4076ZM34.4576 15.6H32.2276V13.72H34.4576V15.6ZM36.4176 18.8H30.2976V21.62H36.4176V18.8ZM35.6176 20.96H31.0976V19.45H35.6176V20.96ZM23.3868 32.63V31.96H19.7168V30.27H22.5868V29.61H17.0668V28.16H22.3768V25.43H16.2368V26.1H21.5768V27.5H16.2568V30.27H18.8868V31.96H15.2368V32.63H23.3868ZM25.474 26.34H30.944V26.56C30.944 27.63 30.954 28.91 30.604 30.62L31.424 30.71C31.774 28.9 31.764 27.68 31.764 26.56V25.67H25.474V26.34ZM32.734 32.48V31.81H28.594V28.6H27.774V31.81H24.624V32.48H32.734Z" fill="#666666"/>
</svg>
