<svg width="16" height="16" viewBox="0 0 16 16" fill="none" xmlns="http://www.w3.org/2000/svg">
<path d="M4.83611 14H10.166C10.4373 14 10.7076 13.9677 10.9713 13.9038V13.9038C12.5052 13.5321 13.5855 12.1588 13.5855 10.5805V6.98C13.5855 6.32099 13.0539 5.7854 12.3949 5.78055L8.24864 5.75L9.17103 3.57004C9.48622 2.82512 8.93941 2 8.13056 2V2C7.79249 2 7.47219 2.15139 7.25759 2.41261L4.83611 5.36013M4.83611 14V5.36013M4.83611 14L3.08114 14C2.71295 14 2.41447 13.7015 2.41447 13.3334V6.02681C2.41447 5.65863 2.71295 5.36015 3.08114 5.36015L4.83611 5.36013" stroke="#AAAAAA" stroke-linecap="round" stroke-linejoin="round"/>
</svg>
