<svg width="188" height="40" viewBox="0 0 188 40" fill="none" xmlns="http://www.w3.org/2000/svg">
<g clip-path="url(#clip0_799_2966)">
<path d="M7.42367 39.9896C5.95255 39.9896 4.62278 39.6126 3.43437 38.8587C2.21454 38.0681 1.30883 37.021 0.712005 35.7068C0.120415 34.3979 -0.104704 32.8953 0.0366496 31.2095C0.146591 29.4869 0.235591 27.7592 0.30365 26.0367C0.376945 24.3142 0.445004 22.5864 0.518298 20.8639C0.554945 20.0367 0.581122 19.2147 0.596828 18.3875C0.612534 17.5602 0.63871 16.733 0.675357 15.911C0.748652 14.7644 0.816711 13.5236 0.890005 12.1937C0.9633 10.8639 1.0523 9.51835 1.15701 8.15186C1.44495 5.06285 2.66478 2.80107 4.82172 1.36128C6.1672 0.455524 7.63832 0.010498 9.25603 0.010498C10.4026 0.010498 11.4915 0.251336 12.5176 0.738247C13.5437 1.22516 14.4128 1.91626 15.13 2.81155C15.7426 3.56547 16.4022 4.49217 17.1247 5.58641L17.1613 5.63877C18.088 7.05238 20.1559 7.03668 21.0669 5.61783L21.0878 5.58641C21.7894 4.49217 22.4438 3.56547 23.0563 2.81155C23.7735 1.91626 24.6531 1.21992 25.6949 0.738247C26.7315 0.251336 27.8257 0.010498 28.9722 0.010498C30.5166 0.010498 31.9877 0.46076 33.3908 1.35605C35.5111 2.79584 36.71 5.05762 36.9979 8.14662C37.1393 9.51312 37.2388 10.8587 37.2964 12.1885C37.3487 13.5184 37.4115 14.7592 37.4848 15.9058C37.5581 16.733 37.6 17.5655 37.6209 18.4136C37.6367 19.2566 37.6681 20.0733 37.6995 20.8639C37.7728 22.5864 37.8356 24.3142 37.8879 26.0367C37.9403 27.7592 38.0398 29.4869 38.1864 31.2095C38.3277 32.9006 38.1078 34.3979 37.511 35.7068C36.9194 37.021 35.9928 38.0681 34.7363 38.8587C33.5845 39.6126 32.26 39.9896 30.747 39.9896H7.42367Z" fill="#9CC8D2"/>
<path d="M79.1893 12.2932C80.0165 14.8429 80.3568 17.4555 80.2154 20.1309C80.0741 22.8063 79.4406 25.3822 78.3307 27.8639C77.179 30.4136 75.6031 32.6126 73.5875 34.466C71.5772 36.3194 69.3417 37.7068 66.8811 38.644C64.4205 39.5812 61.8238 40.0157 59.0962 39.9634C56.3686 39.911 53.7248 39.2356 51.1752 37.9424C48.301 36.5079 45.9503 34.4869 44.118 31.8796C42.2856 29.2775 41.1338 26.3927 40.6679 23.2304C40.3433 20.9319 40.38 18.644 40.7778 16.3613C41.1705 14.0785 41.9087 11.9529 42.9871 9.97383C44.0656 8 45.4582 6.24608 47.1649 4.72252C48.8716 3.19372 50.8558 2.02095 53.1175 1.19372C55.5519 0.329848 58.1329 -0.0628223 60.8448 0.0104761C63.5567 0.0837745 66.1325 0.602099 68.5773 1.57592C71.0222 2.54451 73.1896 3.92671 75.0953 5.72252C77.001 7.51833 78.3621 9.71205 79.1893 12.2984V12.2932Z" fill="#E2806D"/>
<path d="M117.224 5.28797C117.763 6.72776 117.878 8.20944 117.575 9.733C117.271 11.2618 116.58 12.6545 115.501 13.911L115.124 14.3403C114.444 15.1309 113.769 15.911 113.104 16.6859C112.439 17.4607 111.748 18.2409 111.03 19.0314C110.779 19.3194 110.517 19.5969 110.25 19.8691C109.983 20.1414 109.722 20.4189 109.47 20.7016C109.072 21.0995 108.68 21.5026 108.287 21.9162C108.271 21.932 108.261 21.9477 108.245 21.9581C107.58 22.6597 107.209 23.5916 107.183 24.5602C107.183 24.5655 107.183 24.5707 107.183 24.5812C107.162 25.2251 107.156 25.9215 107.156 26.6545C107.156 27.3874 107.167 28.0995 107.183 28.7854C107.198 29.466 107.209 30.0262 107.209 30.4555C107.245 30.8534 107.261 31.2042 107.261 31.5079V32.2356C107.261 34.4293 106.544 36.2409 105.104 37.6754C104.387 38.3927 103.513 38.9581 102.492 39.3717C101.466 39.7854 100.398 39.9895 99.2877 39.9895C98.1778 39.9895 97.0626 39.7854 96.0575 39.3717C95.0523 38.9581 94.1885 38.3927 93.4712 37.6754C92.0315 36.2409 91.3143 34.4241 91.3143 32.2356V27.9267C91.3143 26.8587 91.3248 25.7435 91.3405 24.5812C91.3562 23.6754 91.0263 22.7906 90.4086 22.1204C90.4086 22.1204 90.3981 22.11 90.3981 22.1047C89.9688 21.6388 89.6233 21.2775 89.372 21.0262C89.2254 20.8848 89.1102 20.7592 89.0212 20.6492C88.9322 20.5393 88.8485 20.4503 88.7804 20.3822C88.0998 19.6283 87.4402 18.8901 86.8119 18.1728C86.1837 17.4555 85.5973 16.7906 85.0633 16.178C84.9534 16.0681 84.8539 15.9634 84.7649 15.8534C84.6759 15.7435 84.5764 15.6388 84.4665 15.5288C84.0372 15.0262 83.5765 14.4974 83.0948 13.9372C82.608 13.3822 82.1891 12.7592 81.8279 12.0785C81.4667 11.3979 81.1892 10.6702 80.9955 9.8953C80.7965 9.12567 80.7547 8.27227 80.8594 7.33509C81.0374 5.9686 81.5138 4.71206 82.2886 3.56546C83.0582 2.41363 84.0738 1.51834 85.3303 0.869123C86.5502 0.293207 87.8066 0.00524902 89.0997 0.00524902C91.508 0.00524902 93.4451 0.848181 94.9162 2.53928L95.1832 2.86389C95.8638 3.69111 96.5496 4.50787 97.2302 5.31415C97.6804 5.84818 98.1307 6.38221 98.5809 6.92671C98.9683 7.39268 99.696 7.35603 100.031 6.85342C100.293 6.50263 100.57 6.16755 100.863 5.84295C101.628 4.99478 102.376 4.1309 103.104 3.24609C103.968 2.2042 104.952 1.40839 106.067 0.848181C107.183 0.293207 108.366 0.0104846 109.622 0.0104846C109.837 0.0104846 110.051 0.0209558 110.271 0.0366626C110.486 0.057605 110.722 0.0837831 110.973 0.115197C111.8 0.261794 112.591 0.528809 113.344 0.921479C114.098 1.31939 114.779 1.822 115.391 2.42933C116.255 3.29321 116.863 4.24085 117.224 5.28274V5.28797Z" fill="#ECC658"/>
<path d="M140.61 26.7854C142.065 26.8691 143.416 27.3665 144.662 28.288C145.207 28.6859 145.683 29.1833 146.049 29.7487C146.756 30.843 147.123 32 147.154 33.2252C147.17 34 147.065 34.7435 146.83 35.4608C146.594 36.1781 146.238 36.843 145.751 37.4555C145.264 38.0681 144.683 38.5341 144.002 38.8587C143.322 39.2199 142.599 39.4503 141.845 39.5602C141.092 39.6702 140.353 39.7592 139.636 39.8273C137.589 39.9686 135.532 40.0262 133.469 39.9896C131.401 39.9529 129.365 39.8116 127.354 39.5602C126.454 39.4189 125.496 39.2095 124.469 38.9424C123.443 38.6754 122.627 38.1781 122.019 37.4608C121.621 36.9948 121.328 36.4712 121.129 35.9006C120.93 35.3246 120.763 34.733 120.616 34.1205C120.438 33.3299 120.302 32.2095 120.213 30.754C120.124 29.2985 120.051 27.6754 119.999 25.8796C119.946 24.0838 119.92 22.2147 119.92 20.2775C119.92 18.3404 119.936 16.4869 119.972 14.7278C120.009 12.9686 120.051 11.377 120.108 9.95815C120.161 8.53931 120.224 7.47124 120.297 6.75397C120.438 5.31941 120.899 4.0524 121.669 2.95816C122.438 1.86391 123.527 1.11522 124.93 0.722553C125.684 0.507894 126.448 0.382239 127.218 0.34559C127.988 0.308941 128.752 0.272292 129.506 0.235642C130.799 0.198993 132.092 0.157108 133.385 0.0995167C134.678 0.0471607 135.971 0.0157471 137.265 0.0157471C138.448 0.0157471 139.636 0.0628675 140.819 0.151873C142.003 0.240878 143.118 0.612606 144.159 1.25658C145.091 1.86915 145.83 2.63878 146.369 3.57596C146.908 4.50789 147.175 5.53407 147.175 6.64925C147.175 7.58643 146.997 8.43459 146.636 9.20946C146.275 9.98433 145.798 10.6545 145.207 11.2304C144.615 11.8063 143.913 12.2723 143.107 12.6335C142.301 12.9948 141.463 13.1885 140.599 13.2252C139.662 13.2985 138.741 13.3246 137.825 13.3037C136.909 13.288 136.956 14.021 137.851 14.0053C138.746 13.9896 139.662 14.0157 140.599 14.0838C141.856 14.1938 142.908 14.5445 143.751 15.1362C144.594 15.7278 145.233 16.4503 145.662 17.2932C146.091 18.1362 146.311 19.0419 146.311 20.0157C146.311 20.9896 146.097 21.8953 145.662 22.7383C145.233 23.5812 144.594 24.2985 143.751 24.8953C142.908 25.4869 141.856 25.8377 140.599 25.9477C139.699 26.021 138.819 26.0472 137.961 26.0262C137.238 26.0105 136.5 25.9896 135.757 25.9634C135.521 25.9529 135.322 26.1414 135.322 26.377C135.322 26.6126 135.521 26.8011 135.757 26.7906C136.505 26.7644 137.238 26.7435 137.961 26.7278C138.825 26.7121 139.704 26.7383 140.599 26.8063L140.61 26.7854Z" fill="#8FB99F"/>
<path d="M186.942 12.2932C187.77 14.8429 188.11 17.4555 187.969 20.1309C187.827 22.8063 187.194 25.3822 186.084 27.8639C184.932 30.4136 183.356 32.6126 181.341 34.466C179.33 36.3194 177.095 37.7068 174.634 38.644C172.174 39.5812 169.577 40.0157 166.849 39.9634C164.122 39.911 161.478 39.2356 158.928 37.9424C156.054 36.5079 153.703 34.4869 151.871 31.8796C150.039 29.2775 148.887 26.3927 148.421 23.2304C148.096 20.9319 148.133 18.644 148.531 16.3613C148.924 14.0785 149.662 11.9529 150.74 9.97383C151.819 8 153.211 6.24608 154.918 4.72252C156.625 3.19372 158.609 2.02095 160.871 1.19372C163.316 0.329848 165.891 -0.0628223 168.603 0.0104761C171.315 0.0837745 173.891 0.602099 176.336 1.57592C178.781 2.54451 180.948 3.92671 182.854 5.72252C184.759 7.51833 186.121 9.71205 186.948 12.2984L186.942 12.2932Z" fill="#B299C4"/>
<path d="M55.2796 7.59681C56.0545 7.59681 56.6827 6.9686 56.6827 6.19367C56.6827 5.41874 56.0545 4.79053 55.2796 4.79053C54.5048 4.79053 53.8766 5.41874 53.8766 6.19367C53.8766 6.9686 54.5048 7.59681 55.2796 7.59681Z" fill="white"/>
<path d="M65.41 7.59681C66.1849 7.59681 66.813 6.9686 66.813 6.19367C66.813 5.41874 66.1849 4.79053 65.41 4.79053C64.6351 4.79053 64.0069 5.41874 64.0069 6.19367C64.0069 6.9686 64.6351 7.59681 65.41 7.59681Z" fill="white"/>
<path d="M60.3265 7.91628C59.3161 7.91628 58.6093 7.39272 58.6093 6.63879C58.6093 6.35084 58.8449 6.11523 59.1328 6.11523C59.4208 6.11523 59.6564 6.35084 59.6564 6.63879C59.6564 6.71733 59.9181 6.86916 60.3265 6.86916C60.7349 6.86916 60.9966 6.71733 60.9966 6.63879C60.9966 6.35084 61.2322 6.11523 61.5201 6.11523C61.8081 6.11523 62.0437 6.35084 62.0437 6.63879C62.0437 7.38749 61.3369 7.91628 60.3265 7.91628Z" fill="white"/>
<path d="M13.7427 13.6597C14.5176 13.6597 15.1458 13.0315 15.1458 12.2565C15.1458 11.4816 14.5176 10.8534 13.7427 10.8534C12.9678 10.8534 12.3396 11.4816 12.3396 12.2565C12.3396 13.0315 12.9678 13.6597 13.7427 13.6597Z" fill="white"/>
<path d="M23.873 13.6597C24.6479 13.6597 25.2761 13.0315 25.2761 12.2565C25.2761 11.4816 24.6479 10.8534 23.873 10.8534C23.0981 10.8534 22.4699 11.4816 22.4699 12.2565C22.4699 13.0315 23.0981 13.6597 23.873 13.6597Z" fill="white"/>
<path d="M18.7895 13.9738C17.7791 13.9738 17.0724 13.4502 17.0724 12.6963C17.0724 12.4083 17.3079 12.1727 17.5959 12.1727C17.8838 12.1727 18.1194 12.4083 18.1194 12.6963C18.1194 12.7748 18.3812 12.9267 18.7895 12.9267C19.1979 12.9267 19.4597 12.7748 19.4597 12.6963C19.4597 12.4083 19.6952 12.1727 19.9832 12.1727C20.2711 12.1727 20.5067 12.4083 20.5067 12.6963C20.5067 13.445 19.8 13.9738 18.7895 13.9738Z" fill="white"/>
<path d="M94.2094 12.2514C94.9843 12.2514 95.6125 11.6231 95.6125 10.8482C95.6125 10.0733 94.9843 9.44507 94.2094 9.44507C93.4345 9.44507 92.8063 10.0733 92.8063 10.8482C92.8063 11.6231 93.4345 12.2514 94.2094 12.2514Z" fill="white"/>
<path d="M104.334 12.2514C105.109 12.2514 105.738 11.6231 105.738 10.8482C105.738 10.0733 105.109 9.44507 104.334 9.44507C103.56 9.44507 102.931 10.0733 102.931 10.8482C102.931 11.6231 103.56 12.2514 104.334 12.2514Z" fill="white"/>
<path d="M99.251 12.5707C98.2406 12.5707 97.5391 12.0471 97.5391 11.2932C97.5391 11.0053 97.7747 10.7697 98.0626 10.7697C98.3505 10.7697 98.5861 11.0053 98.5861 11.2932C98.5861 11.3717 98.8479 11.5236 99.251 11.5236C99.6541 11.5236 99.9211 11.3717 99.9211 11.2932C99.9211 11.0053 100.157 10.7697 100.445 10.7697C100.733 10.7697 100.968 11.0053 100.968 11.2932C100.968 12.0419 100.261 12.5707 99.251 12.5707Z" fill="white"/>
<path d="M128.485 5.89527C129.26 5.89527 129.888 5.26706 129.888 4.49213C129.888 3.7172 129.26 3.08899 128.485 3.08899C127.71 3.08899 127.082 3.7172 127.082 4.49213C127.082 5.26706 127.71 5.89527 128.485 5.89527Z" fill="white"/>
<path d="M138.615 5.89527C139.39 5.89527 140.018 5.26706 140.018 4.49213C140.018 3.7172 139.39 3.08899 138.615 3.08899C137.84 3.08899 137.212 3.7172 137.212 4.49213C137.212 5.26706 137.84 5.89527 138.615 5.89527Z" fill="white"/>
<path d="M133.532 6.21462C132.521 6.21462 131.815 5.69106 131.815 4.93713C131.815 4.64918 132.05 4.41357 132.338 4.41357C132.626 4.41357 132.862 4.64918 132.862 4.93713C132.862 5.01567 133.123 5.1675 133.532 5.1675C133.94 5.1675 134.202 5.01567 134.202 4.93713C134.202 4.64918 134.438 4.41357 134.725 4.41357C135.013 4.41357 135.249 4.64918 135.249 4.93713C135.249 5.68583 134.542 6.21462 133.532 6.21462Z" fill="white"/>
<path d="M163.038 8.12562C163.813 8.12562 164.441 7.49741 164.441 6.72248C164.441 5.94754 163.813 5.31934 163.038 5.31934C162.263 5.31934 161.635 5.94754 161.635 6.72248C161.635 7.49741 162.263 8.12562 163.038 8.12562Z" fill="white"/>
<path d="M173.163 8.12562C173.938 8.12562 174.566 7.49741 174.566 6.72248C174.566 5.94754 173.938 5.31934 173.163 5.31934C172.388 5.31934 171.76 5.94754 171.76 6.72248C171.76 7.49741 172.388 8.12562 173.163 8.12562Z" fill="white"/>
<path d="M168.08 8.43984C167.069 8.43984 166.362 7.91628 166.362 7.16235C166.362 6.8744 166.598 6.63879 166.886 6.63879C167.174 6.63879 167.41 6.8744 167.41 7.16235C167.41 7.24089 167.671 7.39272 168.08 7.39272C168.488 7.39272 168.75 7.24089 168.75 7.16235C168.75 6.8744 168.985 6.63879 169.273 6.63879C169.561 6.63879 169.797 6.8744 169.797 7.16235C169.797 7.91105 169.09 8.43984 168.08 8.43984Z" fill="white"/>
</g>
<defs>
<clipPath id="clip0_799_2966">
<rect width="188" height="40" fill="white"/>
</clipPath>
</defs>
</svg>
