<svg width="113" height="24" viewBox="0 0 113 24" fill="none" xmlns="http://www.w3.org/2000/svg">
<g clip-path="url(#clip0_843_1512)">
<path d="M4.45446 23.9937C3.57174 23.9937 2.77384 23.7675 2.06075 23.3152C1.32881 22.8408 0.785354 22.2126 0.427239 21.4241C0.0722651 20.6387 -0.0628134 19.7372 0.0220033 18.7257C0.0879719 17.6922 0.141375 16.6555 0.182213 15.622C0.226192 14.5885 0.267029 13.5518 0.311009 12.5183C0.332998 12.022 0.348705 11.5288 0.358129 11.0325C0.367553 10.5361 0.38326 10.0398 0.405249 9.5466C0.449228 8.85864 0.490066 8.11414 0.534045 7.31623C0.578024 6.51833 0.631427 5.711 0.694255 4.8911C0.867029 3.0377 1.59897 1.68063 2.89321 0.816758C3.70054 0.273302 4.58326 0.00628662 5.55394 0.00628662C6.2419 0.00628662 6.8953 0.150789 7.51101 0.442936C8.12671 0.735082 8.64818 1.14974 9.07855 1.68691C9.44609 2.13927 9.8419 2.69529 10.2754 3.35184L10.2974 3.38325C10.8534 4.23142 12.0943 4.22199 12.6409 3.37068L12.6534 3.35184C13.0744 2.69529 13.467 2.13927 13.8346 1.68691C14.2649 1.14974 14.7927 0.731941 15.4178 0.442936C16.0398 0.150789 16.6963 0.00628662 17.3843 0.00628662C18.311 0.00628662 19.1937 0.276444 20.0356 0.813616C21.3079 1.67749 22.0272 3.03456 22.2 4.88796C22.2848 5.70786 22.3445 6.51519 22.3791 7.31309C22.4105 8.111 22.4482 8.8555 22.4922 9.54346C22.5361 10.0398 22.5613 10.5393 22.5738 11.0482C22.5833 11.5539 22.6021 12.044 22.621 12.5183C22.6649 13.5518 22.7026 14.5885 22.734 15.622C22.7655 16.6555 22.8251 17.6922 22.9131 18.7257C22.9979 19.7403 22.866 20.6387 22.5079 21.4241C22.1529 22.2126 21.5969 22.8408 20.8429 23.3152C20.1518 23.7675 19.3571 23.9937 18.4492 23.9937H4.45446Z" fill="#9CC8D2"/>
<path d="M47.5162 7.37592C48.0126 8.90576 48.2168 10.4733 48.1319 12.0785C48.0471 13.6838 47.667 15.2293 47.001 16.7183C46.3099 18.2482 45.3644 19.5675 44.155 20.6796C42.9487 21.7916 41.6073 22.6241 40.1309 23.1864C38.6545 23.7487 37.0963 24.0094 35.4597 23.978C33.823 23.9466 32.2367 23.5414 30.7068 22.7654C28.9822 21.9047 27.5717 20.6921 26.4723 19.1278C25.3728 17.5665 24.6817 15.8356 24.4021 13.9382C24.2073 12.5592 24.2293 11.1864 24.4681 9.81676C24.7037 8.44712 25.1466 7.17173 25.7937 5.98429C26.4408 4.8 27.2764 3.74765 28.3005 2.83351C29.3246 1.91623 30.5152 1.21257 31.8723 0.716233C33.333 0.197909 34.8817 -0.0376934 36.5089 0.00628565C38.1361 0.0502647 39.6817 0.361259 41.1487 0.945553C42.6157 1.5267 43.9162 2.35602 45.0597 3.43351C46.2031 4.511 47.0199 5.82723 47.5162 7.37906V7.37592Z" fill="#E2806D"/>
<path d="M70.3382 3.17281C70.6618 4.03668 70.7309 4.92569 70.5487 5.83982C70.3665 6.7571 69.9518 7.5927 69.3047 8.34663L69.0785 8.60422C68.6702 9.07857 68.2649 9.54663 67.866 10.0116C67.467 10.4765 67.0524 10.9445 66.622 11.4189C66.4712 11.5917 66.3141 11.7581 66.1539 11.9215C65.9937 12.0848 65.8367 12.2513 65.6859 12.421C65.4471 12.6597 65.2115 12.9016 64.9759 13.1498C64.9665 13.1592 64.9602 13.1686 64.9508 13.1749C64.5518 13.5958 64.3288 14.155 64.3131 14.7362C64.3131 14.7393 64.3131 14.7424 64.3131 14.7487C64.3005 15.1351 64.2974 15.5529 64.2974 15.9927C64.2974 16.4325 64.3037 16.8597 64.3131 17.2712C64.3225 17.6796 64.3288 18.0157 64.3288 18.2733C64.3508 18.5121 64.3602 18.7225 64.3602 18.9047V19.3414C64.3602 20.6576 63.9298 21.7445 63.066 22.6053C62.6356 23.0356 62.111 23.3749 61.4984 23.6231C60.8827 23.8712 60.2419 23.9937 59.5759 23.9937C58.91 23.9937 58.2408 23.8712 57.6377 23.6231C57.0346 23.3749 56.5162 23.0356 56.0859 22.6053C55.222 21.7445 54.7916 20.6545 54.7916 19.3414V16.7561C54.7916 16.1152 54.7979 15.4461 54.8073 14.7487C54.8168 14.2053 54.6189 13.6744 54.2482 13.2723C54.2482 13.2723 54.2419 13.266 54.2419 13.2629C53.9843 12.9833 53.777 12.7665 53.6262 12.6157C53.5382 12.5309 53.4691 12.4555 53.4157 12.3896C53.3623 12.3236 53.312 12.2702 53.2712 12.2294C52.8628 11.777 52.467 11.3341 52.0901 10.9037C51.7131 10.4733 51.3613 10.0744 51.0408 9.70684C50.9749 9.64087 50.9152 9.57804 50.8618 9.51207C50.8084 9.44611 50.7487 9.38328 50.6827 9.31731C50.4251 9.01574 50.1487 8.69846 49.8597 8.36234C49.5675 8.02935 49.3162 7.65553 49.0995 7.24715C48.8827 6.83878 48.7162 6.40213 48.6 5.9372C48.4806 5.47542 48.4555 4.96338 48.5183 4.40108C48.6251 3.58118 48.911 2.82726 49.3759 2.1393C49.8377 1.4482 50.4471 0.911027 51.2011 0.521498C51.933 0.175949 52.6869 0.00317383 53.4628 0.00317383C54.9079 0.00317383 56.0702 0.508933 56.9529 1.52359L57.1131 1.71836C57.5215 2.21469 57.933 2.70474 58.3414 3.18851C58.6115 3.50893 58.8817 3.82935 59.1518 4.15605C59.3843 4.43563 59.821 4.41364 60.022 4.11207C60.1791 3.9016 60.3456 3.70056 60.5215 3.50579C60.9801 2.99689 61.4293 2.47857 61.866 1.94768C62.3843 1.32255 62.9749 0.845059 63.644 0.508933C64.3131 0.175949 65.023 0.00631519 65.777 0.00631519C65.9058 0.00631519 66.0346 0.0125979 66.1665 0.022022C66.2953 0.0345874 66.4367 0.0502942 66.5874 0.0691424C67.0838 0.157101 67.5581 0.31731 68.0105 0.552912C68.4628 0.791655 68.8712 1.09323 69.2388 1.45762C69.7571 1.97595 70.1215 2.54453 70.3382 3.16967V3.17281Z" fill="#ECC658"/>
<path d="M84.3707 16.0712C85.244 16.1214 86.0545 16.4199 86.8021 16.9727C87.1288 17.2115 87.4147 17.5099 87.6346 17.8492C88.0586 18.5057 88.2785 19.2 88.2974 19.9351C88.3068 20.4 88.244 20.8461 88.1026 21.2764C87.9613 21.7068 87.7476 22.1057 87.4555 22.4733C87.1634 22.8408 86.8147 23.1204 86.4063 23.3152C85.9979 23.5319 85.5644 23.6701 85.112 23.7361C84.6597 23.8021 84.2168 23.8555 83.7864 23.8963C82.5581 23.9811 81.3236 24.0157 80.0859 23.9937C78.845 23.9717 77.623 23.8869 76.4168 23.7361C75.8764 23.6513 75.3016 23.5256 74.6859 23.3654C74.0702 23.2052 73.5801 22.9068 73.2157 22.4764C72.977 22.1968 72.801 21.8827 72.6817 21.5403C72.5623 21.1947 72.4618 20.8398 72.3738 20.4722C72.267 19.9979 72.1853 19.3256 72.1319 18.4523C72.0785 17.579 72.0346 16.6052 72.0031 15.5277C71.9717 14.4502 71.956 13.3288 71.956 12.1665C71.956 11.0042 71.9655 9.89212 71.9874 8.83662C72.0094 7.78113 72.0346 6.82615 72.0691 5.97484C72.1005 5.12354 72.1382 4.4827 72.1822 4.05233C72.267 3.1916 72.5435 2.43139 73.0052 1.77484C73.467 1.1183 74.1204 0.669085 74.9623 0.433483C75.4147 0.304687 75.8733 0.229295 76.3351 0.207305C76.7969 0.185316 77.2555 0.163326 77.7079 0.141337C78.4838 0.119347 79.2597 0.0942162 80.0356 0.0596612C80.8115 0.0282476 81.5874 0.00939941 82.3634 0.00939941C83.0733 0.00939941 83.7864 0.0376717 84.4963 0.0910748C85.2063 0.144478 85.8754 0.367515 86.5005 0.753902C87.0597 1.12144 87.5026 1.58322 87.8262 2.14552C88.1497 2.70469 88.3099 3.32039 88.3099 3.9895C88.3099 4.55181 88.2031 5.06071 87.9864 5.52563C87.7696 5.99055 87.4838 6.39265 87.1288 6.73819C86.7738 7.08375 86.3529 7.36333 85.8691 7.58008C85.3853 7.79683 84.8827 7.91306 84.3644 7.93505C83.8021 7.97903 83.2492 7.99474 82.6995 7.98217C82.1497 7.97275 82.178 8.41254 82.7152 8.40312C83.2524 8.39369 83.8021 8.4094 84.3644 8.45024C85.1183 8.5162 85.7497 8.72668 86.2555 9.08165C86.7613 9.43662 87.1445 9.87013 87.4021 10.3759C87.6597 10.8817 87.7916 11.4251 87.7916 12.0094C87.7916 12.5937 87.6628 13.1371 87.4021 13.6429C87.1445 14.1487 86.7613 14.579 86.2555 14.9371C85.7497 15.2921 85.1183 15.5026 84.3644 15.5686C83.8241 15.6125 83.2963 15.6282 82.7812 15.6157C82.3476 15.6063 81.9047 15.5937 81.4586 15.578C81.3173 15.5717 81.1979 15.6848 81.1979 15.8262C81.1979 15.9675 81.3173 16.0806 81.4586 16.0743C81.9079 16.0586 82.3476 16.046 82.7812 16.0366C83.2995 16.0272 83.8272 16.0429 84.3644 16.0837L84.3707 16.0712Z" fill="#8FB99F"/>
<path d="M112.172 7.37592C112.668 8.90576 112.872 10.4733 112.787 12.0785C112.703 13.6838 112.323 15.2293 111.657 16.7183C110.965 18.2482 110.02 19.5675 108.81 20.6796C107.604 21.7916 106.263 22.6241 104.786 23.1864C103.31 23.7487 101.752 24.0094 100.115 23.978C98.4786 23.9466 96.8922 23.5414 95.3623 22.7654C93.6377 21.9047 92.2272 20.6921 91.1278 19.1278C90.0283 17.5665 89.3372 15.8356 89.0576 13.9382C88.8629 12.5592 88.8848 11.1864 89.1236 9.81676C89.3592 8.44712 89.8021 7.17173 90.4492 5.98429C91.0964 4.8 91.932 3.74765 92.956 2.83351C93.9801 1.91623 95.1707 1.21257 96.5278 0.716233C97.9948 0.197909 99.5403 -0.0376934 101.168 0.00628565C102.795 0.0502647 104.34 0.361259 105.807 0.945553C107.274 1.5267 108.575 2.35602 109.718 3.43351C110.862 4.511 111.679 5.82723 112.175 7.37906L112.172 7.37592Z" fill="#B299C4"/>
<path d="M33.1696 4.5581C33.6346 4.5581 34.0115 4.18117 34.0115 3.71621C34.0115 3.25125 33.6346 2.87433 33.1696 2.87433C32.7047 2.87433 32.3278 3.25125 32.3278 3.71621C32.3278 4.18117 32.7047 4.5581 33.1696 4.5581Z" fill="white"/>
<path d="M39.2482 4.5581C39.7131 4.5581 40.0901 4.18117 40.0901 3.71621C40.0901 3.25125 39.7131 2.87433 39.2482 2.87433C38.7832 2.87433 38.4063 3.25125 38.4063 3.71621C38.4063 4.18117 38.7832 4.5581 39.2482 4.5581Z" fill="white"/>
<path d="M36.1979 4.74976C35.5916 4.74976 35.1675 4.43562 35.1675 3.98326C35.1675 3.81049 35.3089 3.66913 35.4817 3.66913C35.6545 3.66913 35.7958 3.81049 35.7958 3.98326C35.7958 4.03038 35.9529 4.12148 36.1979 4.12148C36.4429 4.12148 36.6 4.03038 36.6 3.98326C36.6 3.81049 36.7414 3.66913 36.9141 3.66913C37.0869 3.66913 37.2283 3.81049 37.2283 3.98326C37.2283 4.43248 36.8042 4.74976 36.1979 4.74976Z" fill="white"/>
<path d="M8.24606 8.19579C8.71102 8.19579 9.08794 7.81887 9.08794 7.35391C9.08794 6.88895 8.71102 6.51202 8.24606 6.51202C7.7811 6.51202 7.40417 6.88895 7.40417 7.35391C7.40417 7.81887 7.7811 8.19579 8.24606 8.19579Z" fill="white"/>
<path d="M14.3246 8.19579C14.7896 8.19579 15.1665 7.81887 15.1665 7.35391C15.1665 6.88895 14.7896 6.51202 14.3246 6.51202C13.8597 6.51202 13.4827 6.88895 13.4827 7.35391C13.4827 7.81887 13.8597 8.19579 14.3246 8.19579Z" fill="white"/>
<path d="M11.2744 8.38428C10.6681 8.38428 10.244 8.07014 10.244 7.61779C10.244 7.44501 10.3853 7.30365 10.5581 7.30365C10.7309 7.30365 10.8723 7.44501 10.8723 7.61779C10.8723 7.66491 11.0293 7.75601 11.2744 7.75601C11.5194 7.75601 11.6764 7.66491 11.6764 7.61779C11.6764 7.44501 11.8178 7.30365 11.9906 7.30365C12.1634 7.30365 12.3047 7.44501 12.3047 7.61779C12.3047 8.067 11.8806 8.38428 11.2744 8.38428Z" fill="white"/>
<path d="M56.5288 7.35076C56.9938 7.35076 57.3707 6.97384 57.3707 6.50888C57.3707 6.04392 56.9938 5.66699 56.5288 5.66699C56.0638 5.66699 55.6869 6.04392 55.6869 6.50888C55.6869 6.97384 56.0638 7.35076 56.5288 7.35076Z" fill="white"/>
<path d="M62.6042 7.35076C63.0691 7.35076 63.4461 6.97384 63.4461 6.50888C63.4461 6.04392 63.0691 5.66699 62.6042 5.66699C62.1392 5.66699 61.7623 6.04392 61.7623 6.50888C61.7623 6.97384 62.1392 7.35076 62.6042 7.35076Z" fill="white"/>
<path d="M59.5539 7.54242C58.9476 7.54242 58.5267 7.22828 58.5267 6.77593C58.5267 6.60315 58.6681 6.46179 58.8408 6.46179C59.0136 6.46179 59.155 6.60315 59.155 6.77593C59.155 6.82305 59.312 6.91415 59.5539 6.91415C59.7958 6.91415 59.956 6.82305 59.956 6.77593C59.956 6.60315 60.0974 6.46179 60.2702 6.46179C60.4429 6.46179 60.5843 6.60315 60.5843 6.77593C60.5843 7.22514 60.1602 7.54242 59.5539 7.54242Z" fill="white"/>
<path d="M77.0953 3.53716C77.5603 3.53716 77.9372 3.16024 77.9372 2.69528C77.9372 2.23032 77.5603 1.85339 77.0953 1.85339C76.6303 1.85339 76.2534 2.23032 76.2534 2.69528C76.2534 3.16024 76.6303 3.53716 77.0953 3.53716Z" fill="white"/>
<path d="M83.1738 3.53716C83.6388 3.53716 84.0157 3.16024 84.0157 2.69528C84.0157 2.23032 83.6388 1.85339 83.1738 1.85339C82.7089 1.85339 82.3319 2.23032 82.3319 2.69528C82.3319 3.16024 82.7089 3.53716 83.1738 3.53716Z" fill="white"/>
<path d="M80.1236 3.72882C79.5173 3.72882 79.0932 3.41469 79.0932 2.96233C79.0932 2.78955 79.2346 2.64819 79.4073 2.64819C79.5801 2.64819 79.7215 2.78955 79.7215 2.96233C79.7215 3.00945 79.8785 3.10055 80.1236 3.10055C80.3686 3.10055 80.5257 3.00945 80.5257 2.96233C80.5257 2.78955 80.667 2.64819 80.8398 2.64819C81.0126 2.64819 81.1539 2.78955 81.1539 2.96233C81.1539 3.41154 80.7298 3.72882 80.1236 3.72882Z" fill="white"/>
<path d="M97.8283 4.87542C98.2932 4.87542 98.6702 4.4985 98.6702 4.03354C98.6702 3.56858 98.2932 3.19165 97.8283 3.19165C97.3633 3.19165 96.9864 3.56858 96.9864 4.03354C96.9864 4.4985 97.3633 4.87542 97.8283 4.87542Z" fill="white"/>
<path d="M103.904 4.87542C104.369 4.87542 104.746 4.4985 104.746 4.03354C104.746 3.56858 104.369 3.19165 103.904 3.19165C103.439 3.19165 103.062 3.56858 103.062 4.03354C103.062 4.4985 103.439 4.87542 103.904 4.87542Z" fill="white"/>
<path d="M100.853 5.0639C100.247 5.0639 99.823 4.74977 99.823 4.29741C99.823 4.12464 99.9644 3.98328 100.137 3.98328C100.31 3.98328 100.451 4.12464 100.451 4.29741C100.451 4.34453 100.608 4.43563 100.853 4.43563C101.098 4.43563 101.255 4.34453 101.255 4.29741C101.255 4.12464 101.397 3.98328 101.57 3.98328C101.742 3.98328 101.884 4.12464 101.884 4.29741C101.884 4.74663 101.46 5.0639 100.853 5.0639Z" fill="white"/>
</g>
<defs>
<clipPath id="clip0_843_1512">
<rect width="112.806" height="24" fill="white"/>
</clipPath>
</defs>
</svg>
