<svg width="113" height="24" viewBox="0 0 113 24" fill="none" xmlns="http://www.w3.org/2000/svg">
<path d="M4.46456 23.9935C3.58034 23.9935 2.78108 23.7674 2.06678 23.315C1.3336 22.8406 0.789224 22.2123 0.430501 21.4238C0.074925 20.6384 -0.0603827 19.7368 0.0245779 18.7253C0.0906584 17.6917 0.144152 16.655 0.185059 15.6215C0.229113 14.5879 0.27002 13.5513 0.314073 12.5177C0.3361 12.0214 0.351834 11.5281 0.361274 11.0318C0.370714 10.5354 0.386447 10.0391 0.408474 9.54587C0.452528 8.85788 0.493435 8.11335 0.537488 7.31541C0.581542 6.51748 0.635036 5.71012 0.69797 4.89019C0.871038 3.03672 1.60422 1.6796 2.90065 0.81569C3.70935 0.272214 4.59357 0.00518799 5.5659 0.00518799C6.25502 0.00518799 6.90954 0.149696 7.52629 0.441854C8.14304 0.734012 8.66539 1.14869 9.09649 1.68588C9.46465 2.13825 9.86113 2.6943 10.2954 3.35087L10.3174 3.38228C10.8744 4.23048 12.1173 4.22106 12.6648 3.36971L12.6774 3.35087C13.0991 2.6943 13.4924 2.13825 13.8606 1.68588C14.2917 1.14869 14.8203 0.73087 15.4465 0.441854C16.0696 0.149696 16.7272 0.00518799 17.4163 0.00518799C18.3446 0.00518799 19.2288 0.275355 20.0721 0.812549C21.3465 1.67646 22.0671 3.03358 22.2402 4.88705C22.3252 5.70698 22.385 6.51434 22.4196 7.31227C22.451 8.11021 22.4888 8.85474 22.5329 9.54272C22.5769 10.0391 22.6021 10.5386 22.6147 11.0475C22.6241 11.5533 22.643 12.0433 22.6619 12.5177C22.7059 13.5513 22.7437 14.5879 22.7751 15.6215C22.8066 16.655 22.8664 17.6917 22.9545 18.7253C23.0395 19.74 22.9073 20.6384 22.5486 21.4238C22.193 22.2123 21.636 22.8406 20.8808 23.315C20.1886 23.7674 19.3925 23.9935 18.4831 23.9935H4.46456Z" fill="#A8D2FF"/>
<path d="M47.5994 7.3751C48.0966 8.905 48.3011 10.4726 48.2161 12.0779C48.1312 13.6832 47.7504 15.2288 47.0833 16.7179C46.3911 18.2478 45.4439 19.5672 44.2324 20.6793C43.0241 21.7914 41.6805 22.6238 40.2015 23.1862C38.7226 23.7485 37.1618 24.0092 35.5224 23.9778C33.883 23.9464 32.2939 23.5412 30.7615 22.7652C29.0339 21.9045 27.6211 20.6918 26.5197 19.1274C25.4184 17.5661 24.7261 15.8351 24.446 13.9377C24.2509 12.5585 24.273 11.1857 24.5121 9.81603C24.7481 8.44635 25.1918 7.17091 25.84 5.98343C26.4882 4.79909 27.3253 3.74669 28.3511 2.83252C29.3769 1.91521 30.5695 1.21152 31.9289 0.715162C33.3921 0.196818 34.9434 -0.0387935 36.5734 0.00518721C38.2034 0.0491679 39.7515 0.360175 41.2211 0.94449C42.6906 1.52566 43.9933 2.35502 45.1387 3.43254C46.2841 4.51007 47.1022 5.82635 47.5994 7.37824V7.3751Z" fill="#FF8B8B"/>
<path d="M70.4601 3.17183C70.7842 4.03574 70.8534 4.92478 70.6709 5.83895C70.4884 6.75626 70.073 7.59189 69.4248 8.34585L69.1983 8.60345C68.7892 9.07781 68.3833 9.5459 67.9836 10.0108C67.584 10.4758 67.1687 10.9439 66.7376 11.4182C66.5865 11.591 66.4292 11.7575 66.2687 11.9209C66.1082 12.0842 65.9509 12.2507 65.7998 12.4204C65.5607 12.6591 65.3247 12.901 65.0887 13.1492C65.0792 13.1586 65.073 13.168 65.0635 13.1743C64.6639 13.5953 64.4405 14.1544 64.4247 14.7356C64.4247 14.7388 64.4247 14.7419 64.4247 14.7482C64.4121 15.1346 64.409 15.5524 64.409 15.9922C64.409 16.432 64.4153 16.8593 64.4247 17.2708C64.4342 17.6792 64.4405 18.0153 64.4405 18.2729C64.4625 18.5117 64.4719 18.7222 64.4719 18.9044V19.341C64.4719 20.6573 64.0408 21.7443 63.1755 22.605C62.7444 23.0354 62.2189 23.3747 61.6053 23.6229C60.9886 23.871 60.3466 23.9936 59.6795 23.9936C59.0124 23.9936 58.3422 23.871 57.738 23.6229C57.1339 23.3747 56.6147 23.0354 56.1836 22.605C55.3182 21.7443 54.8871 20.6542 54.8871 19.341V16.7556C54.8871 16.1147 54.8934 15.4456 54.9029 14.7482C54.9123 14.2047 54.7141 13.6738 54.3427 13.2717C54.3427 13.2717 54.3364 13.2654 54.3364 13.2623C54.0784 12.9827 53.8707 12.7659 53.7197 12.6151C53.6316 12.5303 53.5624 12.4549 53.5089 12.3889C53.4554 12.323 53.405 12.2696 53.3641 12.2287C52.9551 11.7763 52.5586 11.3334 52.181 10.903C51.8034 10.4726 51.4509 10.0737 51.13 9.70611C51.0639 9.64014 51.0041 9.57731 50.9506 9.51134C50.8971 9.44537 50.8373 9.38254 50.7712 9.31657C50.5132 9.01499 50.2363 8.6977 49.9468 8.36156C49.6542 8.02856 49.4024 7.65472 49.1853 7.24633C48.9682 6.83794 48.8014 6.40127 48.685 5.93633C48.5654 5.47454 48.5402 4.96247 48.6032 4.40015C48.7102 3.58022 48.9965 2.82627 49.4622 2.13828C49.9248 1.44716 50.5353 0.909963 51.2905 0.52042C52.0236 0.174857 52.7788 0.0020752 53.5561 0.0020752C55.0035 0.0020752 56.1678 0.507854 57.052 1.52255L57.2125 1.71732C57.6216 2.21368 58.0338 2.70375 58.4429 3.18754C58.7135 3.50797 58.9841 3.8284 59.2547 4.15511C59.4876 4.43471 59.925 4.41271 60.1264 4.11113C60.2837 3.90065 60.4505 3.6996 60.6267 3.50483C61.0861 2.99591 61.5361 2.47756 61.9735 1.94665C62.4927 1.3215 63.0843 0.843992 63.7545 0.507854C64.4247 0.174857 65.1359 0.00521668 65.8911 0.00521668C66.0201 0.00521668 66.1491 0.0114996 66.2813 0.0209241C66.4103 0.03349 66.5519 0.0491974 66.7029 0.0680463C67.2001 0.156008 67.6753 0.316223 68.1284 0.551834C68.5815 0.790587 68.9906 1.09217 69.3587 1.45658C69.878 1.97493 70.243 2.54353 70.4601 3.16869V3.17183Z" fill="#FFC107"/>
<path d="M84.5164 16.0708C85.3912 16.121 86.203 16.4195 86.9519 16.9724C87.2792 17.2111 87.5655 17.5096 87.7858 17.8488C88.2106 18.5054 88.4309 19.1997 88.4498 19.9348C88.4592 20.3997 88.3963 20.8458 88.2547 21.2762C88.1131 21.7066 87.8991 22.1055 87.6064 22.4731C87.3138 22.8406 86.9645 23.1202 86.5554 23.315C86.1464 23.5318 85.7121 23.67 85.259 23.736C84.8059 23.8019 84.3622 23.8553 83.9311 23.8962C82.7008 23.981 81.4641 24.0156 80.2243 23.9936C78.9814 23.9716 77.7573 23.8868 76.549 23.736C76.0077 23.6511 75.4319 23.5255 74.8151 23.3653C74.1984 23.2051 73.7075 22.9066 73.3425 22.4762C73.1034 22.1966 72.9271 21.8825 72.8076 21.5401C72.688 21.1945 72.5873 20.8395 72.4992 20.472C72.3922 19.9976 72.3104 19.3253 72.2569 18.452C72.2034 17.5787 72.1593 16.6048 72.1279 15.5273C72.0964 14.4498 72.0807 13.3282 72.0807 12.1659C72.0807 11.0035 72.0901 9.89146 72.1121 8.83592C72.1342 7.78039 72.1593 6.82538 72.194 5.97403C72.2254 5.12269 72.2632 4.48183 72.3072 4.05145C72.3922 3.19068 72.6691 2.43044 73.1317 1.77387C73.5942 1.1173 74.2487 0.668073 75.0921 0.432462C75.5452 0.303661 76.0046 0.228266 76.4672 0.206275C76.9297 0.184285 77.3891 0.162294 77.8423 0.140304C78.6195 0.118314 79.3967 0.0931818 80.174 0.0586255C80.9512 0.0272107 81.7284 0.00836182 82.5057 0.00836182C83.2168 0.00836182 83.9311 0.0366351 84.6423 0.0900403C85.3534 0.143446 86.0237 0.366491 86.6498 0.752893C87.21 1.12045 87.6536 1.58224 87.9777 2.14457C88.3019 2.70375 88.4623 3.31948 88.4623 3.98862C88.4623 4.55094 88.3554 5.05986 88.1382 5.5248C87.9211 5.98974 87.6348 6.39185 87.2792 6.73741C86.9236 7.08298 86.502 7.36257 86.0174 7.57933C85.5328 7.79609 85.0293 7.91233 84.5101 7.93432C83.9468 7.9783 83.393 7.99401 82.8424 7.98144C82.2917 7.97202 82.32 8.41182 82.8581 8.4024C83.3962 8.39297 83.9468 8.40868 84.5101 8.44952C85.2653 8.51549 85.8978 8.72597 86.4044 9.08096C86.911 9.43595 87.2949 9.86947 87.553 10.3752C87.811 10.881 87.9431 11.4245 87.9431 12.0088C87.9431 12.5931 87.8141 13.1366 87.553 13.6424C87.2949 14.1482 86.911 14.5786 86.4044 14.9367C85.8978 15.2917 85.2653 15.5021 84.5101 15.5681C83.9689 15.6121 83.4402 15.6278 82.9242 15.6152C82.4899 15.6058 82.0462 15.5933 81.5994 15.5775C81.4578 15.5713 81.3382 15.6844 81.3382 15.8257C81.3382 15.9671 81.4578 16.0802 81.5994 16.0739C82.0494 16.0582 82.4899 16.0456 82.9242 16.0362C83.4434 16.0268 83.972 16.0425 84.5101 16.0833L84.5164 16.0708Z" fill="#82DBB3"/>
<path d="M112.365 7.3751C112.862 8.905 113.066 10.4726 112.981 12.0779C112.896 13.6832 112.516 15.2288 111.849 16.7179C111.156 18.2478 110.209 19.5672 108.998 20.6793C107.789 21.7914 106.446 22.6238 104.967 23.1862C103.488 23.7485 101.927 24.0092 100.288 23.9778C98.6481 23.9464 97.0591 23.5412 95.5266 22.7652C93.7991 21.9045 92.3862 20.6918 91.2849 19.1274C90.1835 17.5661 89.4913 15.8351 89.2112 13.9377C89.0161 12.5585 89.0381 11.1857 89.2773 9.81603C89.5133 8.44635 89.957 7.17091 90.6052 5.98343C91.2534 4.79909 92.0904 3.74669 93.1163 2.83252C94.1421 1.91521 95.3347 1.21152 96.694 0.715162C98.1636 0.196818 99.7117 -0.0387935 101.342 0.00518721C102.972 0.0491679 104.52 0.360175 105.989 0.94449C107.459 1.52566 108.762 2.35502 109.907 3.43254C111.052 4.51007 111.871 5.82635 112.368 7.37824L112.365 7.3751Z" fill="#BA94D6"/>
<path d="M33.2285 4.55719C33.6942 4.55719 34.0718 4.18025 34.0718 3.71527C34.0718 3.25029 33.6942 2.87335 33.2285 2.87335C32.7627 2.87335 32.3851 3.25029 32.3851 3.71527C32.3851 4.18025 32.7627 4.55719 33.2285 4.55719Z" fill="white"/>
<path d="M39.3173 4.55719C39.783 4.55719 40.1606 4.18025 40.1606 3.71527C40.1606 3.25029 39.783 2.87335 39.3173 2.87335C38.8515 2.87335 38.474 3.25029 38.474 3.71527C38.474 4.18025 38.8515 4.55719 39.3173 4.55719Z" fill="white"/>
<path d="M36.2619 4.74882C35.6546 4.74882 35.2298 4.43467 35.2298 3.9823C35.2298 3.80952 35.3714 3.66815 35.5445 3.66815C35.7175 3.66815 35.8591 3.80952 35.8591 3.9823C35.8591 4.02942 36.0165 4.12053 36.2619 4.12053C36.5074 4.12053 36.6647 4.02942 36.6647 3.9823C36.6647 3.80952 36.8063 3.66815 36.9794 3.66815C37.1524 3.66815 37.294 3.80952 37.294 3.9823C37.294 4.43153 36.8692 4.74882 36.2619 4.74882Z" fill="white"/>
<path d="M8.26269 8.19506C8.72843 8.19506 9.106 7.81813 9.106 7.35315C9.106 6.88817 8.72843 6.51123 8.26269 6.51123C7.79694 6.51123 7.41937 6.88817 7.41937 7.35315C7.41937 7.81813 7.79694 8.19506 8.26269 8.19506Z" fill="white"/>
<path d="M14.3515 8.19506C14.8173 8.19506 15.1948 7.81813 15.1948 7.35315C15.1948 6.88817 14.8173 6.51123 14.3515 6.51123C13.8858 6.51123 13.5082 6.88817 13.5082 7.35315C13.5082 7.81813 13.8858 8.19506 14.3515 8.19506Z" fill="white"/>
<path d="M11.296 8.38353C10.6887 8.38353 10.2639 8.06938 10.2639 7.617C10.2639 7.44422 10.4055 7.30286 10.5786 7.30286C10.7517 7.30286 10.8933 7.44422 10.8933 7.617C10.8933 7.66413 11.0506 7.75523 11.296 7.75523C11.5415 7.75523 11.6988 7.66413 11.6988 7.617C11.6988 7.44422 11.8404 7.30286 12.0135 7.30286C12.1866 7.30286 12.3282 7.44422 12.3282 7.617C12.3282 8.06624 11.9033 8.38353 11.296 8.38353Z" fill="white"/>
<path d="M56.6273 7.34997C57.0931 7.34997 57.4706 6.97303 57.4706 6.50805C57.4706 6.04308 57.0931 5.66614 56.6273 5.66614C56.1616 5.66614 55.784 6.04308 55.784 6.50805C55.784 6.97303 56.1616 7.34997 56.6273 7.34997Z" fill="white"/>
<path d="M62.713 7.34997C63.1787 7.34997 63.5563 6.97303 63.5563 6.50805C63.5563 6.04308 63.1787 5.66614 62.713 5.66614C62.2472 5.66614 61.8697 6.04308 61.8697 6.50805C61.8697 6.97303 62.2472 7.34997 62.713 7.34997Z" fill="white"/>
<path d="M59.6575 7.54161C59.0502 7.54161 58.6286 7.22746 58.6286 6.77509C58.6286 6.6023 58.7702 6.46094 58.9432 6.46094C59.1163 6.46094 59.2579 6.6023 59.2579 6.77509C59.2579 6.82221 59.4152 6.91331 59.6575 6.91331C59.8998 6.91331 60.0603 6.82221 60.0603 6.77509C60.0603 6.6023 60.2019 6.46094 60.375 6.46094C60.548 6.46094 60.6896 6.6023 60.6896 6.77509C60.6896 7.22432 60.2648 7.54161 59.6575 7.54161Z" fill="white"/>
<path d="M77.2287 3.53619C77.6944 3.53619 78.072 3.15925 78.072 2.69427C78.072 2.22929 77.6944 1.85236 77.2287 1.85236C76.7629 1.85236 76.3853 2.22929 76.3853 2.69427C76.3853 3.15925 76.7629 3.53619 77.2287 3.53619Z" fill="white"/>
<path d="M83.3175 3.53619C83.7832 3.53619 84.1608 3.15925 84.1608 2.69427C84.1608 2.22929 83.7832 1.85236 83.3175 1.85236C82.8517 1.85236 82.4742 2.22929 82.4742 2.69427C82.4742 3.15925 82.8517 3.53619 83.3175 3.53619Z" fill="white"/>
<path d="M80.2621 3.72783C79.6548 3.72783 79.23 3.41368 79.23 2.9613C79.23 2.78852 79.3716 2.64716 79.5447 2.64716C79.7177 2.64716 79.8593 2.78852 79.8593 2.9613C79.8593 3.00843 80.0167 3.09953 80.2621 3.09953C80.5076 3.09953 80.6649 3.00843 80.6649 2.9613C80.6649 2.78852 80.8065 2.64716 80.9796 2.64716C81.1526 2.64716 81.2942 2.78852 81.2942 2.9613C81.2942 3.41054 80.8694 3.72783 80.2621 3.72783Z" fill="white"/>
<path d="M97.9969 4.87451C98.4626 4.87451 98.8402 4.49757 98.8402 4.03259C98.8402 3.56761 98.4626 3.19067 97.9969 3.19067C97.5311 3.19067 97.1535 3.56761 97.1535 4.03259C97.1535 4.49757 97.5311 4.87451 97.9969 4.87451Z" fill="white"/>
<path d="M104.083 4.87451C104.548 4.87451 104.926 4.49757 104.926 4.03259C104.926 3.56761 104.548 3.19067 104.083 3.19067C103.617 3.19067 103.239 3.56761 103.239 4.03259C103.239 4.49757 103.617 4.87451 104.083 4.87451Z" fill="white"/>
<path d="M101.027 5.06297C100.42 5.06297 99.995 4.74882 99.995 4.29645C99.995 4.12367 100.137 3.9823 100.31 3.9823C100.483 3.9823 100.624 4.12367 100.624 4.29645C100.624 4.34357 100.782 4.43467 101.027 4.43467C101.273 4.43467 101.43 4.34357 101.43 4.29645C101.43 4.12367 101.571 3.9823 101.745 3.9823C101.918 3.9823 102.059 4.12367 102.059 4.29645C102.059 4.74568 101.634 5.06297 101.027 5.06297Z" fill="white"/>
</svg>
