<svg width="96" height="96" viewBox="0 0 96 96" fill="none" xmlns="http://www.w3.org/2000/svg">
<rect width="96" height="96" rx="8" fill="#82DBB3"/>
<path d="M27.2962 52.7224C30.5336 52.7224 33.1581 50.0982 33.1581 46.8612C33.1581 43.6241 30.5336 41 27.2962 41C24.0588 41 21.4343 43.6241 21.4343 46.8612C21.4343 50.0982 24.0588 52.7224 27.2962 52.7224Z" fill="white"/>
<path d="M69.5977 52.7224C72.8351 52.7224 75.4596 50.0982 75.4596 46.8612C75.4596 43.6241 72.8351 41 69.5977 41C66.3603 41 63.7358 43.6241 63.7358 46.8612C63.7358 50.0982 66.3603 52.7224 69.5977 52.7224Z" fill="white"/>
<path d="M48.3596 54.0346C44.1382 54.0346 41.1854 51.8476 41.1854 48.6983C41.1854 47.4954 42.1696 46.5113 43.3726 46.5113C44.5756 46.5113 45.5599 47.4954 45.5599 48.6983C45.5599 49.0264 46.6535 49.6606 48.3596 49.6606C50.0657 49.6606 51.1593 49.0264 51.1593 48.6983C51.1593 47.4954 52.1436 46.5113 53.3466 46.5113C54.5496 46.5113 55.5338 47.4954 55.5338 48.6983C55.5338 51.8257 52.581 54.0346 48.3596 54.0346Z" fill="white"/>
</svg>
