<svg width="185" height="40" viewBox="0 0 185 40" fill="none" xmlns="http://www.w3.org/2000/svg">
<path d="M7.30923 39.9893C5.86162 39.9893 4.55309 39.6123 3.38367 38.8583C2.18333 38.0677 1.29209 37.0206 0.704802 35.7064C0.122665 34.3974 -0.0988567 32.8947 0.0402382 31.2088C0.148423 29.4862 0.236001 27.7584 0.302973 26.0358C0.375096 24.3133 0.442068 22.5854 0.514191 20.8629C0.550253 20.0356 0.576011 19.2136 0.591466 18.3863C0.606921 17.5591 0.632679 16.7318 0.668741 15.9098C0.740864 14.7632 0.807836 13.5223 0.879959 12.1924C0.952082 10.8625 1.03966 9.51688 1.14269 8.15034C1.42604 5.06122 2.62637 2.79935 4.74886 1.3595C6.07283 0.45371 7.52045 0.00866699 9.11231 0.00866699C10.2405 0.00866699 11.3121 0.249514 12.3218 0.736444C13.3315 1.22337 14.1867 1.9145 14.8925 2.80982C15.4952 3.56378 16.1443 4.49051 16.8553 5.5848L16.8913 5.63715C17.8032 7.05082 19.8381 7.03511 20.7345 5.61621L20.7551 5.5848C21.4454 4.49051 22.0893 3.56378 22.6921 2.80982C23.3979 1.9145 24.2633 1.21814 25.2885 0.736444C26.3086 0.249514 27.3853 0.00866699 28.5135 0.00866699C30.0332 0.00866699 31.4808 0.458946 32.8615 1.35427C34.9479 2.79411 36.1276 5.05598 36.411 8.1451C36.5501 9.51165 36.6479 10.8572 36.7046 12.1871C36.7561 13.517 36.8179 14.7579 36.8901 15.9046C36.9622 16.7318 37.0034 17.5643 37.024 18.4125C37.0395 19.2555 37.0704 20.0723 37.1013 20.8629C37.1734 22.5854 37.2352 24.3133 37.2868 26.0358C37.3383 27.7584 37.4361 29.4862 37.5804 31.2088C37.7195 32.9 37.5031 34.3974 36.9158 35.7064C36.3337 37.0206 35.4218 38.0677 34.1854 38.8583C33.0521 39.6123 31.7487 39.9893 30.2599 39.9893H7.30923Z" fill="#84BDF9"/>
<path d="M77.9282 12.2918C78.7422 14.8417 79.077 17.4543 78.9379 20.1298C78.7988 22.8053 78.1755 25.3813 77.0833 27.8631C75.95 30.4129 74.3993 32.612 72.4159 34.4655C70.4377 36.3189 68.2379 37.7064 65.8167 38.6436C63.3954 39.5808 60.8401 40.0154 58.1561 39.963C55.4721 39.9107 52.8705 39.2353 50.3617 37.942C47.5334 36.5074 45.2203 34.4864 43.4172 31.879C41.6141 29.2768 40.4808 26.3918 40.0223 23.2294C39.7029 20.9309 39.7389 18.6429 40.1305 16.3601C40.5168 14.0772 41.2432 11.9515 42.3045 9.97237C43.3657 7.99848 44.7361 6.24449 46.4155 4.72087C48.0949 3.19201 50.0474 2.01919 52.2729 1.19194C54.6685 0.328029 57.2082 -0.0646559 59.8768 0.00864535C62.5453 0.0819466 65.08 0.600291 67.4858 1.57415C69.8916 2.54277 72.0244 3.92503 73.8996 5.7209C75.7748 7.51678 77.1142 9.71058 77.9282 12.2971V12.2918Z" fill="#FF8B8B"/>
<path d="M115.355 5.28634C115.886 6.72619 115.999 8.20792 115.7 9.73154C115.401 11.2604 114.721 12.6531 113.66 13.9097L113.289 14.339C112.619 15.1296 111.955 15.9098 111.301 16.6847C110.646 17.4596 109.966 18.2397 109.261 19.0303C109.013 19.3183 108.756 19.5958 108.493 19.8681C108.23 20.1403 107.973 20.4178 107.725 20.7005C107.334 21.0985 106.948 21.5016 106.561 21.9153C106.546 21.931 106.535 21.9467 106.52 21.9571C105.866 22.6587 105.5 23.5907 105.474 24.5593C105.474 24.5646 105.474 24.5698 105.474 24.5803C105.454 25.2243 105.448 25.9206 105.448 26.6537C105.448 27.3867 105.459 28.0987 105.474 28.7846C105.49 29.4653 105.5 30.0255 105.5 30.4548C105.536 30.8528 105.551 31.2036 105.551 31.5072V32.235C105.551 34.4288 104.846 36.2404 103.429 37.675C102.723 38.3923 101.863 38.9578 100.858 39.3714C99.8485 39.785 98.7976 39.9892 97.7054 39.9892C96.6133 39.9892 95.516 39.785 94.5268 39.3714C93.5377 38.9578 92.6877 38.3923 91.9819 37.675C90.5652 36.2404 89.8594 34.4236 89.8594 32.235V27.926C89.8594 26.8578 89.8698 25.7426 89.8852 24.5803C89.9007 23.6745 89.5761 22.7896 88.9682 22.1194C88.9682 22.1194 88.9579 22.109 88.9579 22.1037C88.5355 21.6378 88.1955 21.2765 87.9482 21.0252C87.8039 20.8838 87.6906 20.7581 87.603 20.6482C87.5154 20.5382 87.433 20.4492 87.366 20.3812C86.6963 19.6272 86.0472 18.889 85.429 18.1717C84.8108 17.4543 84.2338 16.7894 83.7084 16.1768C83.6002 16.0669 83.5023 15.9621 83.4147 15.8522C83.3271 15.7422 83.2293 15.6375 83.1211 15.5276C82.6986 15.0249 82.2453 14.4961 81.7713 13.9359C81.2922 13.3809 80.8801 12.7578 80.5246 12.0772C80.1692 11.3965 79.8961 10.6687 79.7055 9.89385C79.5098 9.12418 79.4685 8.27075 79.5716 7.33354C79.7467 5.967 80.2155 4.7104 80.978 3.56376C81.7353 2.41189 82.7347 1.51656 83.9711 0.867325C85.1714 0.291387 86.4078 0.00341797 87.6803 0.00341797C90.0501 0.00341797 91.9562 0.846382 93.4038 2.53755L93.6665 2.86217C94.3362 3.68942 95.0111 4.50621 95.6808 5.31252C96.1239 5.84657 96.5669 6.38062 97.01 6.92515C97.3912 7.39113 98.1073 7.35448 98.437 6.85185C98.6945 6.50105 98.9676 6.16596 99.2561 5.84134C100.008 4.99314 100.745 4.12923 101.461 3.24438C102.311 2.20245 103.28 1.40661 104.377 0.846382C105.474 0.291387 106.638 0.00865377 107.875 0.00865377C108.086 0.00865377 108.297 0.0191254 108.514 0.0348328C108.725 0.055776 108.957 0.081955 109.204 0.11337C110.018 0.259972 110.796 0.526998 111.538 0.919683C112.279 1.3176 112.949 1.82024 113.552 2.42759C114.402 3.2915 115 4.23918 115.355 5.28111V5.28634Z" fill="#FFC107"/>
<path d="M138.368 26.7846C139.8 26.8683 141.129 27.3657 142.355 28.2872C142.891 28.6852 143.36 29.1826 143.72 29.748C144.416 30.8423 144.776 31.9994 144.807 33.2246C144.823 33.9995 144.72 34.743 144.488 35.4603C144.256 36.1776 143.906 36.8425 143.426 37.4551C142.947 38.0677 142.376 38.5337 141.706 38.8583C141.036 39.2196 140.325 39.45 139.583 39.5599C138.841 39.6699 138.115 39.7589 137.409 39.827C135.395 39.9683 133.37 40.0259 131.341 39.9893C129.306 39.9526 127.302 39.8112 125.324 39.5599C124.437 39.4186 123.495 39.2091 122.485 38.9421C121.475 38.6751 120.672 38.1777 120.074 37.4604C119.682 36.9944 119.394 36.4708 119.198 35.9001C119.002 35.3242 118.838 34.7325 118.693 34.1199C118.518 33.3293 118.384 32.2089 118.297 30.7533C118.209 29.2978 118.137 27.6747 118.085 25.8788C118.034 24.0829 118.008 22.2137 118.008 20.2765C118.008 18.3392 118.024 16.4857 118.06 14.7265C118.096 12.9673 118.137 11.3756 118.194 9.9567C118.245 8.5378 118.307 7.4697 118.379 6.75239C118.518 5.31778 118.972 4.05072 119.729 2.95644C120.486 1.86215 121.558 1.11343 122.938 0.720749C123.68 0.506081 124.432 0.380422 125.19 0.343772C125.947 0.307121 126.699 0.27047 127.441 0.23382C128.713 0.197169 129.986 0.155283 131.258 0.0976888C132.531 0.0453308 133.803 0.013916 135.076 0.013916C136.24 0.013916 137.409 0.0610382 138.574 0.150047C139.738 0.239055 140.835 0.610797 141.86 1.2548C142.777 1.86739 143.504 2.63705 144.034 3.57426C144.565 4.50623 144.828 5.53245 144.828 6.64768C144.828 7.58489 144.653 8.43309 144.297 9.20798C143.942 9.98288 143.473 10.6531 142.891 11.229C142.309 11.8049 141.618 12.2709 140.825 12.6322C140.032 12.9935 139.207 13.1872 138.357 13.2238C137.435 13.2971 136.528 13.3233 135.627 13.3024C134.725 13.2867 134.772 14.0197 135.653 14.004C136.534 13.9883 137.435 14.0144 138.357 14.0825C139.594 14.1925 140.629 14.5433 141.459 15.1349C142.288 15.7266 142.916 16.4491 143.339 17.2921C143.761 18.135 143.978 19.0408 143.978 20.0147C143.978 20.9885 143.766 21.8943 143.339 22.7373C142.916 23.5803 142.288 24.2976 141.459 24.8944C140.629 25.4861 139.594 25.8369 138.357 25.9468C137.471 26.0201 136.606 26.0463 135.761 26.0254C135.05 26.0097 134.323 25.9887 133.592 25.9626C133.36 25.9521 133.164 26.1406 133.164 26.3762C133.164 26.6118 133.36 26.8003 133.592 26.7898C134.329 26.7636 135.05 26.7427 135.761 26.727C136.611 26.7113 137.476 26.7375 138.357 26.8055L138.368 26.7846Z" fill="#82DBB3"/>
<path d="M183.96 12.2918C184.774 14.8417 185.109 17.4543 184.969 20.1298C184.83 22.8053 184.207 25.3813 183.115 27.8631C181.981 30.4129 180.431 32.612 178.447 34.4655C176.469 36.3189 174.269 37.7064 171.848 38.6436C169.427 39.5808 166.872 40.0154 164.188 39.963C161.504 39.9107 158.902 39.2353 156.393 37.942C153.565 36.5074 151.252 34.4864 149.449 31.879C147.646 29.2768 146.512 26.3918 146.054 23.2294C145.734 20.9309 145.77 18.6429 146.162 16.3601C146.548 14.0772 147.275 11.9515 148.336 9.97237C149.397 7.99848 150.768 6.24449 152.447 4.72087C154.126 3.19201 156.079 2.01919 158.304 1.19194C160.71 0.328029 163.245 -0.0646559 165.913 0.00864535C168.582 0.0819466 171.117 0.600291 173.522 1.57415C175.928 2.54277 178.061 3.92503 179.936 5.7209C181.811 7.51678 183.151 9.71058 183.965 12.2971L183.96 12.2918Z" fill="#BA94D6"/>
<path d="M54.4006 7.59533C55.1631 7.59533 55.7812 6.9671 55.7812 6.19214C55.7812 5.41717 55.1631 4.78894 54.4006 4.78894C53.6381 4.78894 53.0199 5.41717 53.0199 6.19214C53.0199 6.9671 53.6381 7.59533 54.4006 7.59533Z" fill="white"/>
<path d="M64.369 7.59533C65.1315 7.59533 65.7497 6.9671 65.7497 6.19214C65.7497 5.41717 65.1315 4.78894 64.369 4.78894C63.6065 4.78894 62.9884 5.41717 62.9884 6.19214C62.9884 6.9671 63.6065 7.59533 64.369 7.59533Z" fill="white"/>
<path d="M59.3668 7.91476C58.3726 7.91476 57.6771 7.39118 57.6771 6.63723C57.6771 6.34926 57.9089 6.11365 58.1923 6.11365C58.4756 6.11365 58.7074 6.34926 58.7074 6.63723C58.7074 6.71576 58.965 6.8676 59.3668 6.8676C59.7687 6.8676 60.0263 6.71576 60.0263 6.63723C60.0263 6.34926 60.2581 6.11365 60.5414 6.11365C60.8248 6.11365 61.0566 6.34926 61.0566 6.63723C61.0566 7.38595 60.3611 7.91476 59.3668 7.91476Z" fill="white"/>
<path d="M13.5274 13.6584C14.2899 13.6584 14.908 13.0302 14.908 12.2552C14.908 11.4803 14.2899 10.8521 13.5274 10.8521C12.7649 10.8521 12.1468 11.4803 12.1468 12.2552C12.1468 13.0302 12.7649 13.6584 13.5274 13.6584Z" fill="white"/>
<path d="M23.4958 13.6584C24.2584 13.6584 24.8765 13.0302 24.8765 12.2552C24.8765 11.4803 24.2584 10.8521 23.4958 10.8521C22.7333 10.8521 22.1152 11.4803 22.1152 12.2552C22.1152 13.0302 22.7333 13.6584 23.4958 13.6584Z" fill="white"/>
<path d="M18.4935 13.9725C17.4992 13.9725 16.8038 13.4489 16.8038 12.695C16.8038 12.407 17.0356 12.1714 17.3189 12.1714C17.6023 12.1714 17.8341 12.407 17.8341 12.695C17.8341 12.7735 18.0917 12.9253 18.4935 12.9253C18.8953 12.9253 19.1529 12.7735 19.1529 12.695C19.1529 12.407 19.3848 12.1714 19.6681 12.1714C19.9514 12.1714 20.1833 12.407 20.1833 12.695C20.1833 13.4437 19.4878 13.9725 18.4935 13.9725Z" fill="white"/>
<path d="M92.7084 12.25C93.4709 12.25 94.0891 11.6218 94.0891 10.8468C94.0891 10.0718 93.4709 9.4436 92.7084 9.4436C91.9459 9.4436 91.3278 10.0718 91.3278 10.8468C91.3278 11.6218 91.9459 12.25 92.7084 12.25Z" fill="white"/>
<path d="M102.672 12.25C103.434 12.25 104.052 11.6218 104.052 10.8468C104.052 10.0718 103.434 9.4436 102.672 9.4436C101.909 9.4436 101.291 10.0718 101.291 10.8468C101.291 11.6218 101.909 12.25 102.672 12.25Z" fill="white"/>
<path d="M97.6694 12.5693C96.6751 12.5693 95.9848 12.0457 95.9848 11.2918C95.9848 11.0038 96.2166 10.7682 96.5 10.7682C96.7833 10.7682 97.0151 11.0038 97.0151 11.2918C97.0151 11.3703 97.2727 11.5221 97.6694 11.5221C98.0661 11.5221 98.3288 11.3703 98.3288 11.2918C98.3288 11.0038 98.5606 10.7682 98.844 10.7682C99.1273 10.7682 99.3591 11.0038 99.3591 11.2918C99.3591 12.0405 98.6637 12.5693 97.6694 12.5693Z" fill="white"/>
<path d="M126.436 5.89367C127.199 5.89367 127.817 5.26544 127.817 4.49048C127.817 3.71551 127.199 3.08728 126.436 3.08728C125.674 3.08728 125.056 3.71551 125.056 4.49048C125.056 5.26544 125.674 5.89367 126.436 5.89367Z" fill="white"/>
<path d="M136.405 5.89367C137.167 5.89367 137.785 5.26544 137.785 4.49048C137.785 3.71551 137.167 3.08728 136.405 3.08728C135.642 3.08728 135.024 3.71551 135.024 4.49048C135.024 5.26544 135.642 5.89367 136.405 5.89367Z" fill="white"/>
<path d="M131.403 6.2131C130.408 6.2131 129.713 5.68952 129.713 4.93557C129.713 4.6476 129.945 4.41199 130.228 4.41199C130.511 4.41199 130.743 4.6476 130.743 4.93557C130.743 5.0141 131.001 5.16594 131.403 5.16594C131.804 5.16594 132.062 5.0141 132.062 4.93557C132.062 4.6476 132.294 4.41199 132.577 4.41199C132.86 4.41199 133.092 4.6476 133.092 4.93557C133.092 5.68429 132.397 6.2131 131.403 6.2131Z" fill="white"/>
<path d="M160.437 8.12414C161.2 8.12414 161.818 7.49591 161.818 6.72094C161.818 5.94598 161.2 5.31775 160.437 5.31775C159.675 5.31775 159.057 5.94598 159.057 6.72094C159.057 7.49591 159.675 8.12414 160.437 8.12414Z" fill="white"/>
<path d="M170.401 8.12414C171.163 8.12414 171.781 7.49591 171.781 6.72094C171.781 5.94598 171.163 5.31775 170.401 5.31775C169.638 5.31775 169.02 5.94598 169.02 6.72094C169.02 7.49591 169.638 8.12414 170.401 8.12414Z" fill="white"/>
<path d="M165.398 8.43832C164.404 8.43832 163.709 7.91474 163.709 7.16079C163.709 6.87282 163.94 6.63721 164.224 6.63721C164.507 6.63721 164.739 6.87282 164.739 7.16079C164.739 7.23932 164.997 7.39116 165.398 7.39116C165.8 7.39116 166.058 7.23932 166.058 7.16079C166.058 6.87282 166.29 6.63721 166.573 6.63721C166.856 6.63721 167.088 6.87282 167.088 7.16079C167.088 7.90951 166.393 8.43832 165.398 8.43832Z" fill="white"/>
</svg>
