<svg width="39" height="38" viewBox="0 0 39 38" fill="none" xmlns="http://www.w3.org/2000/svg">
<circle cx="19.5" cy="19" r="18" fill="#FF9C07" stroke="white" stroke-width="2"/>
<path d="M18.1085 11H20.8915C21.5811 11 22.222 11.3552 22.5875 11.94L23.4125 13.26C23.778 13.8448 24.4189 14.2 25.1085 14.2H26.5C27.6046 14.2 28.5 15.0954 28.5 16.2V25C28.5 26.1046 27.6046 27 26.5 27H12.5C11.3954 27 10.5 26.1046 10.5 25V16.2C10.5 15.0954 11.3954 14.2 12.5 14.2H13.8915C14.5811 14.2 15.222 13.8448 15.5875 13.26L16.4125 11.94C16.778 11.3552 17.4189 11 18.1085 11Z" stroke="white" stroke-width="2"/>
<ellipse cx="19.5" cy="20.1428" rx="3.375" ry="3.42857" stroke="white" stroke-width="2"/>
</svg>
