<svg width="80" height="80" viewBox="0 0 80 80" fill="none" xmlns="http://www.w3.org/2000/svg">
<rect width="80" height="80" rx="40" fill="#F1F1F1"/>
<path d="M47.1187 26.5L35.1265 26.5C34.5161 26.5 33.9078 26.5726 33.3146 26.7164V26.7164C29.8632 27.5527 27.4325 30.6426 27.4325 34.1939L27.4325 42.295C27.4325 43.7778 28.6287 44.9828 30.1115 44.9938L39.4405 45.0625L37.0464 50.7206C36.4885 52.0393 37.4565 53.5 38.8883 53.5L39.9624 53.5C40.5608 53.5 41.1279 53.232 41.5078 52.7696L47.1187 45.9397M47.1187 26.5L47.1187 45.9397M47.1187 26.5L51.0674 26.4999C51.8958 26.4999 52.5674 27.1715 52.5674 27.9999L52.5674 44.4397C52.5674 45.2681 51.8958 45.9397 51.0674 45.9397L47.1187 45.9397" stroke="#AAAAAA" stroke-width="2" stroke-linecap="round" stroke-linejoin="round"/>
</svg>
