<svg width="243" height="243" viewBox="0 0 243 243" fill="none" xmlns="http://www.w3.org/2000/svg">
<path d="M236.545 74.7341C241.595 90.237 243.673 106.122 242.81 122.389C241.947 138.656 238.079 154.318 231.302 169.407C224.27 184.91 214.648 198.28 202.341 209.549C190.065 220.818 176.416 229.254 161.392 234.952C146.367 240.65 130.512 243.293 113.857 242.974C97.203 242.656 81.0599 238.549 65.4923 230.687C47.9427 221.964 33.5898 209.676 22.4015 193.823C11.2133 178.002 4.18066 160.462 1.33564 141.234C-0.646277 127.259 -0.422515 113.348 2.00693 99.4687C4.40442 85.5893 8.91169 72.6649 15.4968 60.6318C22.0819 48.6305 30.5849 37.9663 41.006 28.7028C51.427 19.4074 63.5423 12.2766 77.3518 7.24694C92.2162 1.99441 107.976 -0.393106 124.534 0.0525635C141.093 0.498233 156.82 3.64975 171.749 9.57079C186.677 15.46 199.911 23.8641 211.547 34.783C223.183 45.7019 231.494 59.0401 236.545 74.7659V74.7341Z" fill="#FF9C07" fill-opacity="0.5"/>
<path d="M90.5543 46.1795C95.2857 46.1795 99.1213 42.3598 99.1213 37.6481C99.1213 32.9363 95.2857 29.1167 90.5543 29.1167C85.8229 29.1167 81.9873 32.9363 81.9873 37.6481C81.9873 42.3598 85.8229 46.1795 90.5543 46.1795Z" fill="white"/>
<path d="M152.409 46.1795C157.141 46.1795 160.976 42.3598 160.976 37.6481C160.976 32.9363 157.141 29.1167 152.409 29.1167C147.678 29.1167 143.842 32.9363 143.842 37.6481C143.842 42.3598 147.678 46.1795 152.409 46.1795Z" fill="white"/>
<path d="M121.37 48.1211C115.201 48.1211 110.885 44.9378 110.885 40.3538C110.885 38.6029 112.324 37.1704 114.082 37.1704C115.84 37.1704 117.279 38.6029 117.279 40.3538C117.279 40.8313 118.877 41.7544 121.37 41.7544C123.864 41.7544 125.462 40.8313 125.462 40.3538C125.462 38.6029 126.9 37.1704 128.659 37.1704C130.417 37.1704 131.855 38.6029 131.855 40.3538C131.855 44.906 127.54 48.1211 121.37 48.1211Z" fill="white"/>
</svg>
