<svg width="14" height="14" viewBox="0 0 14 14" fill="none" xmlns="http://www.w3.org/2000/svg">
<path d="M9.24189 9.07435C9.50386 9.16167 9.78702 9.02009 9.87435 8.75812C9.96167 8.49615 9.82009 8.21299 9.55812 8.12566L9.24189 9.07435ZM7 7.8H6.5C6.5 8.01522 6.63772 8.20629 6.84189 8.27435L7 7.8ZM7.5 4.45485C7.5 4.1787 7.27615 3.95485 7 3.95485C6.72386 3.95485 6.5 4.1787 6.5 4.45485H7.5ZM9.55812 8.12566L7.15812 7.32566L6.84189 8.27435L9.24189 9.07435L9.55812 8.12566ZM7.5 7.8V4.45485H6.5V7.8H7.5ZM12.9 7C12.9 10.2585 10.2585 12.9 7 12.9V13.9C10.8108 13.9 13.9 10.8108 13.9 7H12.9ZM7 12.9C3.74153 12.9 1.10001 10.2585 1.10001 7H0.100006C0.100006 10.8108 3.18924 13.9 7 13.9V12.9ZM1.10001 7C1.10001 3.74153 3.74153 1.10001 7 1.10001V0.100006C3.18924 0.100006 0.100006 3.18924 0.100006 7H1.10001ZM7 1.10001C10.2585 1.10001 12.9 3.74153 12.9 7H13.9C13.9 3.18924 10.8108 0.100006 7 0.100006V1.10001Z" fill="#AAAAAA"/>
</svg>
