<svg width="100" height="100" viewBox="0 0 100 100" fill="none" xmlns="http://www.w3.org/2000/svg">
<path d="M50 100C77.6142 100 100 77.6142 100 50C100 22.3858 77.6142 0 50 0C22.3858 0 0 22.3858 0 50C0 77.6142 22.3858 100 50 100Z" fill="#84BDF9"/>
<path d="M34.2004 54.3884C36.6241 54.3884 38.5888 52.4236 38.5888 50C38.5888 47.5763 36.6241 45.6116 34.2004 45.6116C31.7768 45.6116 29.812 47.5763 29.812 50C29.812 52.4236 31.7768 54.3884 34.2004 54.3884Z" fill="white"/>
<path d="M65.8073 54.3884C68.231 54.3884 70.1957 52.4236 70.1957 50C70.1957 47.5763 68.231 45.6116 65.8073 45.6116C63.3837 45.6116 61.4189 47.5763 61.4189 50C61.4189 52.4236 63.3837 54.3884 65.8073 54.3884Z" fill="white"/>
<path fill-rule="evenodd" clip-rule="evenodd" d="M46.2227 50.3951C46.7749 50.3951 47.2227 50.8428 47.2227 51.3951C47.2227 51.7066 47.3832 52.0091 47.8743 52.2848C48.3829 52.5704 49.1318 52.744 49.9412 52.744C50.7507 52.744 51.4996 52.5704 52.0082 52.2848C52.4993 52.0091 52.6598 51.7066 52.6598 51.3951C52.6598 50.8428 53.1076 50.3951 53.6598 50.3951C54.2121 50.3951 54.6598 50.8428 54.6598 51.3951C54.6598 52.6495 53.8907 53.5215 52.9874 54.0287C52.1015 54.5261 50.9911 54.744 49.9412 54.744C48.8914 54.744 47.781 54.5261 46.8951 54.0287C45.9918 53.5215 45.2227 52.6495 45.2227 51.3951C45.2227 50.8428 45.6704 50.3951 46.2227 50.3951Z" fill="white"/>
</svg>
